Aldone-Bold.ufo
<glyph name="exclam" format="2">
	<advance width="252"/>
	<unicode hex="0021"/>
	<outline>
		<contour>
			<point x="192" y="685" type="line" smooth="yes"/>
			<point x="192" y="693"/>
			<point x="185" y="700"/>
			<point x="177" y="700" type="curve" smooth="yes"/>
			<point x="75" y="700" type="line" smooth="yes"/>
			<point x="67" y="700"/>
			<point x="60" y="693"/>
			<point x="60" y="685" type="curve" smooth="yes"/>
			<point x="60" y="215" type="line" smooth="yes"/>
			<point x="60" y="207"/>
			<point x="67" y="200"/>
			<point x="75" y="200" type="curve" smooth="yes"/>
			<point x="177" y="200" type="line" smooth="yes"/>
			<point x="185" y="200"/>
			<point x="192" y="207"/>
			<point x="192" y="215" type="curve" smooth="yes"/>
		</contour>
		<contour>
			<point x="60" y="15" type="line" smooth="yes"/>
			<point x="60" y="7"/>
			<point x="67" y="0"/>
			<point x="75" y="0" type="curve" smooth="yes"/>
			<point x="177" y="0" type="line" smooth="yes"/>
			<point x="185" y="0"/>
			<point x="192" y="7"/>
			<point x="192" y="15" type="curve" smooth="yes"/>
			<point x="192" y="104" type="line" smooth="yes"/>
			<point x="192" y="112"/>
			<point x="185" y="119"/>
			<point x="177" y="119" type="curve" smooth="yes"/>
			<point x="75" y="119" type="line" smooth="yes"/>
			<point x="67" y="119"/>
			<point x="60" y="112"/>
			<point x="60" y="104" type="curve" smooth="yes"/>
		</contour>
	</outline>
</glyph>
<glyph name="quotesingle" format="2">
	<advance width="279"/>
	<unicode hex="0027"/>
	<outline>
		<contour>
			<point x="96" y="720" type="line" smooth="yes"/>
			<point x="88" y="720"/>
			<point x="82" y="718"/>
			<point x="78" y="711" type="curve" smooth="yes"/>
			<point x="3" y="597" type="line" smooth="yes"/>
			<point x="-3" y="588"/>
			<point x="0" y="579"/>
			<point x="12" y="579" type="curve" smooth="yes"/>
			<point x="143" y="579" type="line" smooth="yes"/>
			<point x="151" y="579"/>
			<point x="157" y="581"/>
			<point x="161" y="588" type="curve" smooth="yes"/>
			<point x="236" y="702" type="line" smooth="yes"/>
			<point x="242" y="711"/>
			<point x="239" y="720"/>
			<point x="227" y="720" type="curve" smooth="yes"/>
		</contour>
	</outline>
</glyph>
<glyph name="parenleft" format="2">
	<advance width="332"/>
	<unicode hex="0028"/>
	<outline>
		<contour>
			<point x="60" y="277" type="curve" smooth="yes"/>
			<point x="60" y="-107"/>
			<point x="80" y="-150"/>
			<point x="256" y="-150" type="curve" smooth="yes"/>
			<point x="265" y="-150"/>
			<point x="272" y="-144"/>
			<point x="272" y="-135" type="curve" smooth="yes"/>
			<point x="272" y="-34" type="line" smooth="yes"/>
			<point x="272" y="-26"/>
			<point x="266" y="-19"/>
			<point x="257" y="-19" type="curve" smooth="yes"/>
			<point x="199" y="-19"/>
			<point x="192" y="11"/>
			<point x="192" y="277" type="curve" smooth="yes"/>
			<point x="192" y="543"/>
			<point x="199" y="573"/>
			<point x="257" y="573" type="curve" smooth="yes"/>
			<point x="266" y="573"/>
			<point x="272" y="580"/>
			<point x="272" y="588" type="curve" smooth="yes"/>
			<point x="272" y="689" type="line" smooth="yes"/>
			<point x="272" y="698"/>
			<point x="265" y="704"/>
			<point x="256" y="704" type="curve" smooth="yes"/>
			<point x="80" y="704"/>
			<point x="60" y="661"/>
		</contour>
	</outline>
</glyph>
<glyph name="comma" format="1">
  <advance width="252"/>
  <unicode hex="002C"/>
  <outline>
    <contour>
      <point x="192" y="112"/>
      <point x="185" y="119"/>
      <point x="177" y="119" type="curve" smooth="yes"/>
      <point x="75" y="119" type="line" smooth="yes"/>
      <point x="67" y="119"/>
      <point x="60" y="112"/>
      <point x="60" y="104" type="curve" smooth="yes"/>
      <point x="60" y="55" type="line" smooth="yes"/>
      <point x="60" y="16"/>
      <point x="46" y="-2"/>
      <point x="15" y="-2" type="curve" smooth="yes"/>
      <point x="6" y="-2"/>
      <point x="0" y="-9"/>
      <point x="0" y="-17" type="curve" smooth="yes"/>
      <point x="0" y="-108" type="line" smooth="yes"/>
      <point x="0" y="-117"/>
      <point x="7" y="-123"/>
      <point x="16" y="-123" type="curve" smooth="yes"/>
      <point x="137" y="-123"/>
      <point x="192" y="-64"/>
      <point x="192" y="65" type="curve" smooth="yes"/>
      <point x="192" y="104" type="line" smooth="yes"/>
    </contour>
  </outline>
</glyph>
<glyph name="hyphen" format="2">
	<advance width="452"/>
	<unicode hex="002D"/>
	<outline>
		<contour>
			<point x="70" y="329" type="curve" smooth="yes"/>
			<point x="70" y="240" type="line" smooth="yes"/>
			<point x="70" y="232"/>
			<point x="77" y="225"/>
			<point x="85" y="225" type="curve" smooth="yes"/>
			<point x="367" y="225" type="line" smooth="yes"/>
			<point x="375" y="225"/>
			<point x="382" y="232"/>
			<point x="382" y="240" type="curve" smooth="yes"/>
			<point x="382" y="329" type="line" smooth="yes"/>
			<point x="382" y="337"/>
			<point x="375" y="344"/>
			<point x="367" y="344" type="curve" smooth="yes"/>
			<point x="85" y="344" type="line" smooth="yes"/>
			<point x="77" y="344"/>
			<point x="70" y="337"/>
		</contour>
	</outline>
</glyph>
<glyph name="period" format="2">
	<advance width="252"/>
	<unicode hex="002E"/>
	<outline>
		<contour>
			<point x="60" y="104" type="curve" smooth="yes"/>
			<point x="60" y="15" type="line" smooth="yes"/>
			<point x="60" y="7"/>
			<point x="67" y="0"/>
			<point x="75" y="0" type="curve" smooth="yes"/>
			<point x="177" y="0" type="line" smooth="yes"/>
			<point x="185" y="0"/>
			<point x="192" y="7"/>
			<point x="192" y="15" type="curve" smooth="yes"/>
			<point x="192" y="104" type="line" smooth="yes"/>
			<point x="192" y="112"/>
			<point x="185" y="119"/>
			<point x="177" y="119" type="curve" smooth="yes"/>
			<point x="75" y="119" type="line" smooth="yes"/>
			<point x="67" y="119"/>
			<point x="60" y="112"/>
		</contour>
	</outline>
</glyph>
<glyph name="slash" format="1">
  <advance width="509"/>
  <unicode hex="002F"/>
  <outline>
    <contour>
      <point x="42" y="-82" type="line" smooth="yes"/>
      <point x="38" y="-92"/>
      <point x="40" y="-100"/>
      <point x="52" y="-100" type="curve" smooth="yes"/>
      <point x="160" y="-100" type="line" smooth="yes"/>
      <point x="168" y="-100"/>
      <point x="176" y="-96"/>
      <point x="178" y="-90" type="curve" smooth="yes"/>
      <point x="467" y="682" type="line" smooth="yes"/>
      <point x="471" y="693"/>
      <point x="469" y="700"/>
      <point x="457" y="700" type="curve" smooth="yes"/>
      <point x="338" y="700" type="line" smooth="yes"/>
      <point x="330" y="700"/>
      <point x="323" y="697"/>
      <point x="320" y="690" type="curve" smooth="yes"/>
    </contour>
  </outline>
</glyph>
<glyph name="zero" format="1">
  <advance width="736"/>
  <unicode hex="0030"/>
  <outline>
    <contour>
      <point x="619" y="-4"/>
      <point x="676" y="62"/>
      <point x="676" y="354" type="curve" smooth="yes"/>
      <point x="676" y="639"/>
      <point x="619" y="704"/>
      <point x="368" y="704" type="curve" smooth="yes"/>
      <point x="117" y="704"/>
      <point x="60" y="639"/>
      <point x="60" y="354" type="curve" smooth="yes"/>
      <point x="60" y="62"/>
      <point x="117" y="-4"/>
      <point x="368" y="-4" type="curve" smooth="yes"/>
    </contour>
    <contour>
      <point x="233" y="128"/>
      <point x="202" y="170"/>
      <point x="202" y="354" type="curve" smooth="yes"/>
      <point x="202" y="532"/>
      <point x="233" y="572"/>
      <point x="368" y="572" type="curve" smooth="yes"/>
      <point x="503" y="572"/>
      <point x="534" y="532"/>
      <point x="534" y="354" type="curve" smooth="yes"/>
      <point x="534" y="170"/>
      <point x="503" y="128"/>
      <point x="368" y="128" type="curve" smooth="yes"/>
    </contour>
    <contour>
      <point x="252" y="72" type="line"/>
      <point x="583" y="566" type="line"/>
      <point x="481" y="641" type="line"/>
      <point x="154" y="139" type="line"/>
    </contour>
  </outline>
</glyph>
<glyph name="three" format="2">
	<advance width="685"/>
	<unicode hex="0033"/>
	<outline>
		<contour>
			<point x="60" y="193" type="curve" smooth="yes"/>
			<point x="60" y="33"/>
			<point x="112" y="-4"/>
			<point x="341" y="-4" type="curve" smooth="yes"/>
			<point x="560" y="-4"/>
			<point x="625" y="45"/>
			<point x="625" y="211" type="curve" smooth="yes"/>
			<point x="625" y="330"/>
			<point x="599" y="357"/>
			<point x="483" y="357" type="curve"/>
			<point x="599" y="357"/>
			<point x="625" y="382"/>
			<point x="625" y="489" type="curve" smooth="yes"/>
			<point x="625" y="655"/>
			<point x="560" y="704"/>
			<point x="341" y="704" type="curve" smooth="yes"/>
			<point x="112" y="704"/>
			<point x="60" y="667"/>
			<point x="60" y="507" type="curve" smooth="yes"/>
			<point x="60" y="494"/>
			<point x="69" y="484"/>
			<point x="81" y="484" type="curve" smooth="yes"/>
			<point x="182" y="484" type="line" smooth="yes"/>
			<point x="194" y="484"/>
			<point x="202" y="493"/>
			<point x="202" y="504" type="curve" smooth="yes"/>
			<point x="202" y="565"/>
			<point x="216" y="572"/>
			<point x="341" y="572" type="curve" smooth="yes"/>
			<point x="469" y="572"/>
			<point x="483" y="564"/>
			<point x="483" y="489" type="curve" smooth="yes"/>
			<point x="483" y="430"/>
			<point x="476" y="423"/>
			<point x="411" y="423" type="curve" smooth="yes"/>
			<point x="298" y="423" type="line" smooth="yes"/>
			<point x="290" y="423"/>
			<point x="283" y="416"/>
			<point x="283" y="408" type="curve" smooth="yes"/>
			<point x="283" y="306" type="line" smooth="yes"/>
			<point x="283" y="298"/>
			<point x="290" y="291"/>
			<point x="298" y="291" type="curve" smooth="yes"/>
			<point x="411" y="291" type="line" smooth="yes"/>
			<point x="476" y="291"/>
			<point x="483" y="283"/>
			<point x="483" y="211" type="curve" smooth="yes"/>
			<point x="483" y="136"/>
			<point x="469" y="128"/>
			<point x="341" y="128" type="curve" smooth="yes"/>
			<point x="216" y="128"/>
			<point x="202" y="135"/>
			<point x="202" y="196" type="curve" smooth="yes"/>
			<point x="202" y="207"/>
			<point x="194" y="216"/>
			<point x="182" y="216" type="curve" smooth="yes"/>
			<point x="81" y="216" type="line" smooth="yes"/>
			<point x="69" y="216"/>
			<point x="60" y="206"/>
		</contour>
	</outline>
</glyph>
<glyph name="four" format="2">
	<advance width="687"/>
	<unicode hex="0034"/>
	<outline>
		<contour>
			<point x="667" y="155" type="curve" smooth="yes"/>
			<point x="667" y="257" type="line" smooth="yes"/>
			<point x="667" y="266"/>
			<point x="661" y="272"/>
			<point x="652" y="272" type="curve" smooth="yes"/>
			<point x="214" y="272" type="line" smooth="yes"/>
			<point x="205" y="272"/>
			<point x="196" y="279"/>
			<point x="206" y="290" type="curve" smooth="yes"/>
			<point x="546" y="667" type="line"/>
			<point x="546" y="700" type="line"/>
			<point x="412" y="700" type="line" smooth="yes"/>
			<point x="404" y="700"/>
			<point x="402" y="697"/>
			<point x="395" y="689" type="curve" smooth="yes"/>
			<point x="57" y="310" type="line" smooth="yes"/>
			<point x="31" y="280"/>
			<point x="41" y="264"/>
			<point x="41" y="237" type="curve" smooth="yes"/>
			<point x="41" y="155" type="line" smooth="yes"/>
			<point x="41" y="146"/>
			<point x="47" y="140"/>
			<point x="56" y="140" type="curve" smooth="yes"/>
			<point x="652" y="140" type="line" smooth="yes"/>
			<point x="661" y="140"/>
			<point x="667" y="146"/>
		</contour>
		<contour>
			<point x="573" y="15" type="curve" smooth="yes"/>
			<point x="573" y="685" type="line" smooth="yes"/>
			<point x="573" y="693"/>
			<point x="566" y="700"/>
			<point x="558" y="700" type="curve" smooth="yes"/>
			<point x="446" y="700" type="line" smooth="yes"/>
			<point x="438" y="700"/>
			<point x="431" y="693"/>
			<point x="431" y="685" type="curve" smooth="yes"/>
			<point x="431" y="15" type="line" smooth="yes"/>
			<point x="431" y="7"/>
			<point x="438" y="0"/>
			<point x="446" y="0" type="curve" smooth="yes"/>
			<point x="558" y="0" type="line" smooth="yes"/>
			<point x="566" y="0"/>
			<point x="573" y="7"/>
		</contour>
	</outline>
</glyph>
<glyph name="five" format="2">
	<advance width="685"/>
	<unicode hex="0035"/>
	<outline>
		<contour>
			<point x="341" y="-4" type="curve" smooth="yes"/>
			<point x="572" y="-4"/>
			<point x="625" y="39"/>
			<point x="625" y="227" type="curve" smooth="yes"/>
			<point x="625" y="424"/>
			<point x="592" y="469"/>
			<point x="361" y="469" type="curve" smooth="yes"/>
			<point x="296" y="469"/>
			<point x="236" y="445"/>
			<point x="212" y="408" type="curve" smooth="yes"/>
			<point x="208" y="401"/>
			<point x="202" y="405"/>
			<point x="202" y="414" type="curve" smooth="yes"/>
			<point x="202" y="553" type="line" smooth="yes"/>
			<point x="202" y="562"/>
			<point x="208" y="568"/>
			<point x="217" y="568" type="curve" smooth="yes"/>
			<point x="566" y="568" type="line" smooth="yes"/>
			<point x="575" y="568"/>
			<point x="581" y="574"/>
			<point x="581" y="583" type="curve" smooth="yes"/>
			<point x="581" y="685" type="line" smooth="yes"/>
			<point x="581" y="694"/>
			<point x="575" y="700"/>
			<point x="566" y="700" type="curve" smooth="yes"/>
			<point x="75" y="700" type="line" smooth="yes"/>
			<point x="66" y="700"/>
			<point x="60" y="694"/>
			<point x="60" y="685" type="curve" smooth="yes"/>
			<point x="60" y="282" type="line" smooth="yes"/>
			<point x="60" y="273"/>
			<point x="66" y="267"/>
			<point x="75" y="267" type="curve" smooth="yes"/>
			<point x="197" y="267" type="line" smooth="yes"/>
			<point x="200" y="267"/>
			<point x="202" y="269"/>
			<point x="202" y="271" type="curve"/>
			<point x="202" y="330"/>
			<point x="216" y="337"/>
			<point x="341" y="337" type="curve" smooth="yes"/>
			<point x="469" y="337"/>
			<point x="483" y="326"/>
			<point x="483" y="227" type="curve" smooth="yes"/>
			<point x="483" y="138"/>
			<point x="469" y="128"/>
			<point x="341" y="128" type="curve" smooth="yes"/>
			<point x="216" y="128"/>
			<point x="202" y="133"/>
			<point x="202" y="176" type="curve" smooth="yes"/>
			<point x="202" y="187"/>
			<point x="194" y="196"/>
			<point x="182" y="196" type="curve" smooth="yes"/>
			<point x="81" y="196" type="line" smooth="yes"/>
			<point x="69" y="196"/>
			<point x="60" y="186"/>
			<point x="60" y="173" type="curve" smooth="yes"/>
			<point x="60" y="29"/>
			<point x="112" y="-4"/>
		</contour>
	</outline>
</glyph>
<glyph name="eight" format="1">
  <advance width="676"/>
  <unicode hex="0038"/>
  <outline>
    <contour>
      <point x="526" y="336"/>
      <point x="596" y="381"/>
      <point x="596" y="500" type="curve" smooth="yes"/>
      <point x="596" y="663"/>
      <point x="548" y="700"/>
      <point x="338" y="700" type="curve" smooth="yes"/>
      <point x="128" y="700"/>
      <point x="80" y="663"/>
      <point x="80" y="500" type="curve" smooth="yes"/>
      <point x="80" y="381"/>
      <point x="150" y="336"/>
      <point x="338" y="336" type="curve" smooth="yes"/>
    </contour>
    <contour>
      <point x="234" y="424"/>
      <point x="222" y="432"/>
      <point x="222" y="500" type="curve" smooth="yes"/>
      <point x="222" y="561"/>
      <point x="234" y="568"/>
      <point x="338" y="568" type="curve" smooth="yes"/>
      <point x="442" y="568"/>
      <point x="454" y="561"/>
      <point x="454" y="500" type="curve" smooth="yes"/>
      <point x="454" y="432"/>
      <point x="442" y="424"/>
      <point x="338" y="424" type="curve" smooth="yes"/>
    </contour>
    <contour>
      <point x="564" y="-4"/>
      <point x="616" y="35"/>
      <point x="616" y="204" type="curve" smooth="yes"/>
      <point x="616" y="329"/>
      <point x="541" y="376"/>
      <point x="338" y="376" type="curve" smooth="yes"/>
      <point x="135" y="376"/>
      <point x="60" y="329"/>
      <point x="60" y="204" type="curve" smooth="yes"/>
      <point x="60" y="35"/>
      <point x="112" y="-4"/>
      <point x="338" y="-4" type="curve" smooth="yes"/>
    </contour>
    <contour>
      <point x="216" y="128"/>
      <point x="202" y="136"/>
      <point x="202" y="204" type="curve" smooth="yes"/>
      <point x="202" y="283"/>
      <point x="216" y="292"/>
      <point x="338" y="292" type="curve" smooth="yes"/>
      <point x="460" y="292"/>
      <point x="474" y="283"/>
      <point x="474" y="204" type="curve" smooth="yes"/>
      <point x="474" y="136"/>
      <point x="460" y="128"/>
      <point x="338" y="128" type="curve" smooth="yes"/>
    </contour>
  </outline>
</glyph>
<glyph name="nine" format="2">
	<advance width="685"/>
	<unicode hex="0039"/>
	<outline>
		<contour>
			<point x="60" y="489" type="curve" smooth="yes"/>
			<point x="60" y="314"/>
			<point x="112" y="274"/>
			<point x="341" y="274" type="curve" smooth="yes"/>
			<point x="444" y="274"/>
			<point x="458" y="280"/>
			<point x="483" y="338" type="curve"/>
			<point x="483" y="211" type="line" smooth="yes"/>
			<point x="483" y="136"/>
			<point x="469" y="128"/>
			<point x="341" y="128" type="curve" smooth="yes"/>
			<point x="220" y="128"/>
			<point x="206" y="133"/>
			<point x="206" y="180" type="curve" smooth="yes"/>
			<point x="206" y="191"/>
			<point x="198" y="200"/>
			<point x="186" y="200" type="curve" smooth="yes"/>
			<point x="85" y="200" type="line" smooth="yes"/>
			<point x="73" y="200"/>
			<point x="64" y="190"/>
			<point x="64" y="177" type="curve" smooth="yes"/>
			<point x="64" y="30"/>
			<point x="116" y="-4"/>
			<point x="341" y="-4" type="curve" smooth="yes"/>
			<point x="572" y="-4"/>
			<point x="625" y="36"/>
			<point x="625" y="211" type="curve" smooth="yes"/>
			<point x="625" y="489" type="line" smooth="yes"/>
			<point x="625" y="664"/>
			<point x="572" y="704"/>
			<point x="341" y="704" type="curve" smooth="yes"/>
			<point x="112" y="704"/>
			<point x="60" y="664"/>
		</contour>
		<contour>
			<point x="202" y="489" type="curve" smooth="yes"/>
			<point x="202" y="564"/>
			<point x="216" y="572"/>
			<point x="341" y="572" type="curve" smooth="yes"/>
			<point x="469" y="572"/>
			<point x="483" y="564"/>
			<point x="483" y="489" type="curve" smooth="yes"/>
			<point x="483" y="414"/>
			<point x="469" y="406"/>
			<point x="341" y="406" type="curve" smooth="yes"/>
			<point x="216" y="406"/>
			<point x="202" y="414"/>
		</contour>
	</outline>
</glyph>
<glyph name="A" format="1">
  <advance width="731"/>
  <unicode hex="0041"/>
  <outline>
    <contour>
      <point x="197" y="273"/>
      <point x="190" y="266"/>
      <point x="190" y="258" type="curve" smooth="yes"/>
      <point x="190" y="156" type="line" smooth="yes"/>
      <point x="190" y="148"/>
      <point x="197" y="141"/>
      <point x="205" y="141" type="curve" smooth="yes"/>
      <point x="527" y="141" type="line" smooth="yes"/>
      <point x="535" y="141"/>
      <point x="542" y="148"/>
      <point x="542" y="156" type="curve" smooth="yes"/>
      <point x="542" y="258" type="line" smooth="yes"/>
      <point x="542" y="266"/>
      <point x="535" y="273"/>
      <point x="527" y="273" type="curve" smooth="yes"/>
      <point x="205" y="273" type="line" smooth="yes"/>
    </contour>
    <contour>
      <point x="158" y="0" type="line" smooth="yes"/>
      <point x="176" y="0"/>
      <point x="180" y="3"/>
      <point x="183" y="15" type="curve"/>
      <point x="360" y="537" type="line" smooth="yes"/>
      <point x="370" y="567"/>
      <point x="369" y="567"/>
      <point x="379" y="537" type="curve" smooth="yes"/>
      <point x="548" y="15" type="line"/>
      <point x="551" y="3"/>
      <point x="555" y="0"/>
      <point x="573" y="0" type="curve" smooth="yes"/>
      <point x="675" y="0" type="line" smooth="yes"/>
      <point x="690" y="0"/>
      <point x="693" y="3"/>
      <point x="690" y="15" type="curve"/>
      <point x="470" y="685" type="line"/>
      <point x="468" y="693"/>
      <point x="463" y="700"/>
      <point x="455" y="700" type="curve" smooth="yes"/>
      <point x="286" y="700" type="line" smooth="yes"/>
      <point x="278" y="700"/>
      <point x="273" y="693"/>
      <point x="271" y="685" type="curve"/>
      <point x="41" y="15" type="line"/>
      <point x="38" y="3"/>
      <point x="41" y="0"/>
      <point x="56" y="0" type="curve" smooth="yes"/>
    </contour>
  </outline>
</glyph>
<glyph name="B" format="1">
  <advance width="655"/>
  <unicode hex="0042"/>
  <outline>
    <contour>
      <point x="60" y="7"/>
      <point x="67" y="0"/>
      <point x="75" y="0" type="curve" smooth="yes"/>
      <point x="406" y="0" type="line" smooth="yes"/>
      <point x="551" y="0"/>
      <point x="605" y="53"/>
      <point x="605" y="196" type="curve" smooth="yes"/>
      <point x="605" y="283"/>
      <point x="555" y="344"/>
      <point x="480" y="348" type="curve"/>
      <point x="473" y="365" type="line"/>
      <point x="530" y="365"/>
      <point x="568" y="427"/>
      <point x="568" y="520" type="curve" smooth="yes"/>
      <point x="568" y="651"/>
      <point x="514" y="700"/>
      <point x="369" y="700" type="curve" smooth="yes"/>
      <point x="75" y="700" type="line" smooth="yes"/>
      <point x="67" y="700"/>
      <point x="60" y="693"/>
      <point x="60" y="685" type="curve" smooth="yes"/>
      <point x="60" y="15" type="line" smooth="yes"/>
    </contour>
    <contour>
      <point x="202" y="285" type="line" smooth="yes"/>
      <point x="202" y="294"/>
      <point x="208" y="300"/>
      <point x="217" y="300" type="curve" smooth="yes"/>
      <point x="406" y="300" type="line" smooth="yes"/>
      <point x="450" y="300"/>
      <point x="463" y="281"/>
      <point x="463" y="216" type="curve" smooth="yes"/>
      <point x="463" y="151"/>
      <point x="450" y="132"/>
      <point x="406" y="132" type="curve" smooth="yes"/>
      <point x="217" y="132" type="line" smooth="yes"/>
      <point x="208" y="132"/>
      <point x="202" y="138"/>
      <point x="202" y="147" type="curve" smooth="yes"/>
    </contour>
    <contour>
      <point x="202" y="553" type="line" smooth="yes"/>
      <point x="202" y="562"/>
      <point x="208" y="568"/>
      <point x="217" y="568" type="curve" smooth="yes"/>
      <point x="369" y="568" type="line" smooth="yes"/>
      <point x="411" y="568"/>
      <point x="426" y="550"/>
      <point x="426" y="500" type="curve" smooth="yes"/>
      <point x="426" y="450"/>
      <point x="411" y="432"/>
      <point x="369" y="432" type="curve" smooth="yes"/>
      <point x="217" y="432" type="line" smooth="yes"/>
      <point x="208" y="432"/>
      <point x="202" y="438"/>
      <point x="202" y="447" type="curve" smooth="yes"/>
    </contour>
  </outline>
</glyph>
<glyph name="C" format="2">
	<advance width="693"/>
	<unicode hex="0043"/>
	<outline>
		<contour>
			<point x="50" y="354" type="curve" smooth="yes"/>
			<point x="50" y="62"/>
			<point x="97" y="-4"/>
			<point x="348" y="-4" type="curve" smooth="yes"/>
			<point x="582" y="-4"/>
			<point x="641" y="37"/>
			<point x="641" y="216" type="curve" smooth="yes"/>
			<point x="641" y="226"/>
			<point x="635" y="231"/>
			<point x="626" y="231" type="curve" smooth="yes"/>
			<point x="510" y="231" type="line" smooth="yes"/>
			<point x="501" y="231"/>
			<point x="495" y="226"/>
			<point x="495" y="216" type="curve" smooth="yes"/>
			<point x="495" y="144"/>
			<point x="462" y="128"/>
			<point x="348" y="128" type="curve" smooth="yes"/>
			<point x="213" y="128"/>
			<point x="192" y="170"/>
			<point x="192" y="354" type="curve" smooth="yes"/>
			<point x="192" y="532"/>
			<point x="213" y="572"/>
			<point x="348" y="572" type="curve" smooth="yes"/>
			<point x="464" y="572"/>
			<point x="491" y="556"/>
			<point x="498" y="484" type="curve" smooth="yes"/>
			<point x="499" y="474"/>
			<point x="504" y="469"/>
			<point x="513" y="469" type="curve" smooth="yes"/>
			<point x="628" y="469" type="line" smooth="yes"/>
			<point x="637" y="469"/>
			<point x="643" y="474"/>
			<point x="643" y="484" type="curve" smooth="yes"/>
			<point x="643" y="663"/>
			<point x="583" y="704"/>
			<point x="348" y="704" type="curve" smooth="yes"/>
			<point x="97" y="704"/>
			<point x="50" y="639"/>
		</contour>
	</outline>
</glyph>
<glyph name="D" format="1">
  <advance width="725"/>
  <unicode hex="0044"/>
  <outline>
    <contour>
      <point x="212" y="685" type="line" smooth="yes"/>
      <point x="212" y="693"/>
      <point x="205" y="700"/>
      <point x="197" y="700" type="curve" smooth="yes"/>
      <point x="85" y="700" type="line" smooth="yes"/>
      <point x="77" y="700"/>
      <point x="70" y="693"/>
      <point x="70" y="685" type="curve" smooth="yes"/>
      <point x="70" y="15" type="line" smooth="yes"/>
      <point x="70" y="7"/>
      <point x="77" y="0"/>
      <point x="85" y="0" type="curve" smooth="yes"/>
      <point x="197" y="0" type="line" smooth="yes"/>
      <point x="205" y="0"/>
      <point x="212" y="7"/>
      <point x="212" y="15" type="curve" smooth="yes"/>
    </contour>
    <contour>
      <point x="602" y="0"/>
      <point x="665" y="66"/>
      <point x="665" y="354" type="curve" smooth="yes"/>
      <point x="665" y="636"/>
      <point x="602" y="700"/>
      <point x="327" y="700" type="curve"/>
      <point x="163" y="700" type="line"/>
      <point x="163" y="568" type="line"/>
      <point x="327" y="568" type="line"/>
      <point x="487" y="568"/>
      <point x="523" y="528"/>
      <point x="523" y="354" type="curve" smooth="yes"/>
      <point x="523" y="173"/>
      <point x="487" y="132"/>
      <point x="327" y="132" type="curve"/>
      <point x="163" y="132" type="line"/>
      <point x="163" y="0" type="line"/>
      <point x="327" y="0" type="line"/>
    </contour>
  </outline>
</glyph>
<glyph name="E" format="2">
	<advance width="655"/>
	<unicode hex="0045"/>
	<outline>
		<contour>
			<point x="212" y="15" type="curve" smooth="yes"/>
			<point x="212" y="685" type="line" smooth="yes"/>
			<point x="212" y="693"/>
			<point x="205" y="700"/>
			<point x="197" y="700" type="curve" smooth="yes"/>
			<point x="85" y="700" type="line" smooth="yes"/>
			<point x="77" y="700"/>
			<point x="70" y="693"/>
			<point x="70" y="685" type="curve" smooth="yes"/>
			<point x="70" y="15" type="line" smooth="yes"/>
			<point x="70" y="7"/>
			<point x="77" y="0"/>
			<point x="85" y="0" type="curve" smooth="yes"/>
			<point x="197" y="0" type="line" smooth="yes"/>
			<point x="205" y="0"/>
			<point x="212" y="7"/>
		</contour>
		<contour>
			<point x="198" y="423" type="line" smooth="yes"/>
			<point x="190" y="423"/>
			<point x="183" y="416"/>
			<point x="183" y="408" type="curve" smooth="yes"/>
			<point x="183" y="306" type="line" smooth="yes"/>
			<point x="183" y="298"/>
			<point x="190" y="291"/>
			<point x="198" y="291" type="curve" smooth="yes"/>
			<point x="520" y="291" type="line" smooth="yes"/>
			<point x="528" y="291"/>
			<point x="535" y="298"/>
			<point x="535" y="306" type="curve" smooth="yes"/>
			<point x="535" y="408" type="line" smooth="yes"/>
			<point x="535" y="416"/>
			<point x="528" y="423"/>
			<point x="520" y="423" type="curve" smooth="yes"/>
		</contour>
		<contour>
			<point x="198" y="132" type="line" smooth="yes"/>
			<point x="190" y="132"/>
			<point x="183" y="125"/>
			<point x="183" y="117" type="curve" smooth="yes"/>
			<point x="183" y="15" type="line" smooth="yes"/>
			<point x="183" y="7"/>
			<point x="190" y="0"/>
			<point x="198" y="0" type="curve" smooth="yes"/>
			<point x="570" y="0" type="line" smooth="yes"/>
			<point x="578" y="0"/>
			<point x="585" y="7"/>
			<point x="585" y="15" type="curve" smooth="yes"/>
			<point x="585" y="117" type="line" smooth="yes"/>
			<point x="585" y="125"/>
			<point x="578" y="132"/>
			<point x="570" y="132" type="curve" smooth="yes"/>
		</contour>
		<contour>
			<point x="198" y="700" type="line" smooth="yes"/>
			<point x="190" y="700"/>
			<point x="183" y="693"/>
			<point x="183" y="685" type="curve" smooth="yes"/>
			<point x="183" y="583" type="line" smooth="yes"/>
			<point x="183" y="575"/>
			<point x="190" y="568"/>
			<point x="198" y="568" type="curve" smooth="yes"/>
			<point x="570" y="568" type="line" smooth="yes"/>
			<point x="578" y="568"/>
			<point x="585" y="575"/>
			<point x="585" y="583" type="curve" smooth="yes"/>
			<point x="585" y="685" type="line" smooth="yes"/>
			<point x="585" y="693"/>
			<point x="578" y="700"/>
			<point x="570" y="700" type="curve" smooth="yes"/>
		</contour>
	</outline>
</glyph>
<glyph name="F" format="1">
  <advance width="595"/>
  <unicode hex="0046"/>
  <outline>
    <contour>
      <point x="202" y="685" type="line" smooth="yes"/>
      <point x="202" y="693"/>
      <point x="195" y="700"/>
      <point x="187" y="700" type="curve" smooth="yes"/>
      <point x="75" y="700" type="line" smooth="yes"/>
      <point x="67" y="700"/>
      <point x="60" y="693"/>
      <point x="60" y="685" type="curve" smooth="yes"/>
      <point x="60" y="15" type="line" smooth="yes"/>
      <point x="60" y="7"/>
      <point x="67" y="0"/>
      <point x="75" y="0" type="curve" smooth="yes"/>
      <point x="187" y="0" type="line" smooth="yes"/>
      <point x="195" y="0"/>
      <point x="202" y="7"/>
      <point x="202" y="15" type="curve" smooth="yes"/>
    </contour>
    <contour>
      <point x="180" y="423"/>
      <point x="173" y="416"/>
      <point x="173" y="408" type="curve" smooth="yes"/>
      <point x="173" y="306" type="line" smooth="yes"/>
      <point x="173" y="298"/>
      <point x="180" y="291"/>
      <point x="188" y="291" type="curve" smooth="yes"/>
      <point x="470" y="291" type="line" smooth="yes"/>
      <point x="478" y="291"/>
      <point x="485" y="298"/>
      <point x="485" y="306" type="curve" smooth="yes"/>
      <point x="485" y="408" type="line" smooth="yes"/>
      <point x="485" y="416"/>
      <point x="478" y="423"/>
      <point x="470" y="423" type="curve" smooth="yes"/>
      <point x="188" y="423" type="line" smooth="yes"/>
    </contour>
    <contour>
      <point x="180" y="700"/>
      <point x="173" y="693"/>
      <point x="173" y="685" type="curve" smooth="yes"/>
      <point x="173" y="583" type="line" smooth="yes"/>
      <point x="173" y="575"/>
      <point x="180" y="568"/>
      <point x="188" y="568" type="curve" smooth="yes"/>
      <point x="520" y="568" type="line" smooth="yes"/>
      <point x="528" y="568"/>
      <point x="535" y="575"/>
      <point x="535" y="583" type="curve" smooth="yes"/>
      <point x="535" y="685" type="line" smooth="yes"/>
      <point x="535" y="693"/>
      <point x="528" y="700"/>
      <point x="520" y="700" type="curve" smooth="yes"/>
      <point x="188" y="700" type="line" smooth="yes"/>
    </contour>
  </outline>
</glyph>
<glyph name="G" format="2">
	<advance width="693"/>
	<unicode hex="0047"/>
	<outline>
		<contour>
			<point x="348" y="-4" type="curve" smooth="yes"/>
			<point x="587" y="-4"/>
			<point x="641" y="45"/>
			<point x="641" y="261" type="curve"/>
			<point x="510" y="261" type="line"/>
			<point x="510" y="141"/>
			<point x="494" y="128"/>
			<point x="348" y="128" type="curve" smooth="yes"/>
			<point x="208" y="128"/>
			<point x="192" y="151"/>
			<point x="192" y="354" type="curve" smooth="yes"/>
			<point x="192" y="550"/>
			<point x="208" y="572"/>
			<point x="348" y="572" type="curve" smooth="yes"/>
			<point x="474" y="572"/>
			<point x="488" y="565"/>
			<point x="488" y="498" type="curve" smooth="yes"/>
			<point x="488" y="488"/>
			<point x="494" y="483"/>
			<point x="503" y="483" type="curve" smooth="yes"/>
			<point x="618" y="483" type="line" smooth="yes"/>
			<point x="627" y="483"/>
			<point x="633" y="488"/>
			<point x="633" y="498" type="curve" smooth="yes"/>
			<point x="633" y="666"/>
			<point x="580" y="704"/>
			<point x="348" y="704" type="curve" smooth="yes"/>
			<point x="105" y="704"/>
			<point x="50" y="639"/>
			<point x="50" y="354" type="curve" smooth="yes"/>
			<point x="50" y="62"/>
			<point x="105" y="-4"/>
		</contour>
		<contour>
			<point x="328" y="393" type="line" smooth="yes"/>
			<point x="320" y="393"/>
			<point x="313" y="386"/>
			<point x="313" y="378" type="curve" smooth="yes"/>
			<point x="313" y="276" type="line" smooth="yes"/>
			<point x="313" y="268"/>
			<point x="320" y="261"/>
			<point x="328" y="261" type="curve" smooth="yes"/>
			<point x="641" y="261" type="line"/>
			<point x="641" y="336" type="line" smooth="yes"/>
			<point x="641" y="382"/>
			<point x="630" y="393"/>
			<point x="582" y="393" type="curve" smooth="yes"/>
		</contour>
	</outline>
</glyph>
<glyph name="H" format="2">
	<advance width="689"/>
	<unicode hex="0048"/>
	<outline>
		<contour>
			<point x="202" y="15" type="curve" smooth="yes"/>
			<point x="202" y="685" type="line" smooth="yes"/>
			<point x="202" y="693"/>
			<point x="195" y="700"/>
			<point x="187" y="700" type="curve" smooth="yes"/>
			<point x="75" y="700" type="line" smooth="yes"/>
			<point x="67" y="700"/>
			<point x="60" y="693"/>
			<point x="60" y="685" type="curve" smooth="yes"/>
			<point x="60" y="15" type="line" smooth="yes"/>
			<point x="60" y="7"/>
			<point x="67" y="0"/>
			<point x="75" y="0" type="curve" smooth="yes"/>
			<point x="187" y="0" type="line" smooth="yes"/>
			<point x="195" y="0"/>
			<point x="202" y="7"/>
		</contour>
		<contour>
			<point x="629" y="15" type="curve" smooth="yes"/>
			<point x="629" y="685" type="line" smooth="yes"/>
			<point x="629" y="693"/>
			<point x="622" y="700"/>
			<point x="614" y="700" type="curve" smooth="yes"/>
			<point x="502" y="700" type="line" smooth="yes"/>
			<point x="494" y="700"/>
			<point x="487" y="693"/>
			<point x="487" y="685" type="curve" smooth="yes"/>
			<point x="487" y="15" type="line" smooth="yes"/>
			<point x="487" y="7"/>
			<point x="494" y="0"/>
			<point x="502" y="0" type="curve" smooth="yes"/>
			<point x="614" y="0" type="line" smooth="yes"/>
			<point x="622" y="0"/>
			<point x="629" y="7"/>
		</contour>
		<contour>
			<point x="188" y="423" type="line" smooth="yes"/>
			<point x="180" y="423"/>
			<point x="173" y="416"/>
			<point x="173" y="408" type="curve" smooth="yes"/>
			<point x="173" y="306" type="line" smooth="yes"/>
			<point x="173" y="298"/>
			<point x="180" y="291"/>
			<point x="188" y="291" type="curve" smooth="yes"/>
			<point x="510" y="291" type="line" smooth="yes"/>
			<point x="518" y="291"/>
			<point x="525" y="298"/>
			<point x="525" y="306" type="curve" smooth="yes"/>
			<point x="525" y="408" type="line" smooth="yes"/>
			<point x="525" y="416"/>
			<point x="518" y="423"/>
			<point x="510" y="423" type="curve" smooth="yes"/>
		</contour>
	</outline>
</glyph>
<glyph name="J" format="2">
	<advance width="566"/>
	<unicode hex="004A"/>
	<outline>
		<contour>
			<point x="278" y="-4" type="curve" smooth="yes"/>
			<point x="464" y="-4"/>
			<point x="506" y="46"/>
			<point x="506" y="267" type="curve" smooth="yes"/>
			<point x="506" y="685" type="line" smooth="yes"/>
			<point x="506" y="694"/>
			<point x="500" y="700"/>
			<point x="491" y="700" type="curve" smooth="yes"/>
			<point x="379" y="700" type="line" smooth="yes"/>
			<point x="370" y="700"/>
			<point x="364" y="694"/>
			<point x="364" y="685" type="curve" smooth="yes"/>
			<point x="364" y="267" type="line" smooth="yes"/>
			<point x="364" y="154"/>
			<point x="348" y="128"/>
			<point x="278" y="128" type="curve" smooth="yes"/>
			<point x="213" y="128"/>
			<point x="195" y="143"/>
			<point x="192" y="202" type="curve" smooth="yes"/>
			<point x="192" y="212"/>
			<point x="186" y="217"/>
			<point x="177" y="217" type="curve" smooth="yes"/>
			<point x="65" y="217" type="line" smooth="yes"/>
			<point x="56" y="217"/>
			<point x="50" y="212"/>
			<point x="50" y="202" type="curve" smooth="yes"/>
			<point x="53" y="35"/>
			<point x="97" y="-4"/>
		</contour>
	</outline>
</glyph>
<glyph name="K" format="2">
	<advance width="640"/>
	<unicode hex="004B"/>
	<outline>
		<contour>
			<point x="202" y="15" type="curve" smooth="yes"/>
			<point x="202" y="685" type="line" smooth="yes"/>
			<point x="202" y="693"/>
			<point x="195" y="700"/>
			<point x="187" y="700" type="curve" smooth="yes"/>
			<point x="75" y="700" type="line" smooth="yes"/>
			<point x="67" y="700"/>
			<point x="60" y="693"/>
			<point x="60" y="685" type="curve" smooth="yes"/>
			<point x="60" y="15" type="line" smooth="yes"/>
			<point x="60" y="7"/>
			<point x="67" y="0"/>
			<point x="75" y="0" type="curve" smooth="yes"/>
			<point x="187" y="0" type="line" smooth="yes"/>
			<point x="195" y="0"/>
			<point x="202" y="7"/>
		</contour>
		<contour>
			<point x="349" y="321" type="curve" smooth="yes"/>
			<point x="220" y="321" type="line" smooth="yes"/>
			<point x="208" y="321"/>
			<point x="201" y="315"/>
			<point x="210" y="303" type="curve" smooth="yes"/>
			<point x="441" y="10" type="line" smooth="yes"/>
			<point x="445" y="4"/>
			<point x="451" y="0"/>
			<point x="459" y="0" type="curve" smooth="yes"/>
			<point x="594" y="0" type="line" smooth="yes"/>
			<point x="606" y="0"/>
			<point x="612" y="8"/>
			<point x="604" y="18" type="curve" smooth="yes"/>
			<point x="367" y="311" type="line" smooth="yes"/>
			<point x="362" y="318"/>
			<point x="357" y="321"/>
		</contour>
		<contour>
			<point x="166" y="358" type="line"/>
			<point x="244" y="260" type="line"/>
			<point x="577" y="682" type="line" smooth="yes"/>
			<point x="586" y="694"/>
			<point x="579" y="700"/>
			<point x="567" y="700" type="curve" smooth="yes"/>
			<point x="428" y="700" type="line" smooth="yes"/>
			<point x="420" y="700"/>
			<point x="415" y="697"/>
			<point x="410" y="690" type="curve" smooth="yes"/>
		</contour>
	</outline>
</glyph>
<glyph name="M" format="2">
	<advance width="870"/>
	<unicode hex="004D"/>
	<outline>
		<contour>
			<point x="202" y="15" type="curve" smooth="yes"/>
			<point x="202" y="700" type="line"/>
			<point x="75" y="700" type="line" smooth="yes"/>
			<point x="67" y="700"/>
			<point x="60" y="693"/>
			<point x="60" y="685" type="curve" smooth="yes"/>
			<point x="60" y="15" type="line" smooth="yes"/>
			<point x="60" y="7"/>
			<point x="67" y="0"/>
			<point x="75" y="0" type="curve" smooth="yes"/>
			<point x="187" y="0" type="line" smooth="yes"/>
			<point x="195" y="0"/>
			<point x="202" y="7"/>
		</contour>
		<contour>
			<point x="270" y="700" type="curve" smooth="yes"/>
			<point x="202" y="700" type="line"/>
			<point x="202" y="540" type="line"/>
			<point x="350" y="11" type="line" smooth="yes"/>
			<point x="352" y="4"/>
			<point x="359" y="0"/>
			<point x="367" y="0" type="curve" smooth="yes"/>
			<point x="435" y="0" type="line"/>
			<point x="435" y="150" type="line"/>
			<point x="287" y="689" type="line" smooth="yes"/>
			<point x="285" y="696"/>
			<point x="278" y="700"/>
		</contour>
		<contour>
			<point x="600" y="700" type="line" smooth="yes"/>
			<point x="592" y="700"/>
			<point x="585" y="696"/>
			<point x="583" y="689" type="curve" smooth="yes"/>
			<point x="435" y="150" type="line"/>
			<point x="435" y="0" type="line"/>
			<point x="503" y="0" type="line" smooth="yes"/>
			<point x="511" y="0"/>
			<point x="518" y="4"/>
			<point x="520" y="11" type="curve" smooth="yes"/>
			<point x="668" y="540" type="line"/>
			<point x="668" y="700" type="line"/>
		</contour>
		<contour>
			<point x="668" y="15" type="line" smooth="yes"/>
			<point x="668" y="7"/>
			<point x="675" y="0"/>
			<point x="683" y="0" type="curve" smooth="yes"/>
			<point x="795" y="0" type="line" smooth="yes"/>
			<point x="803" y="0"/>
			<point x="810" y="7"/>
			<point x="810" y="15" type="curve" smooth="yes"/>
			<point x="810" y="685" type="line" smooth="yes"/>
			<point x="810" y="693"/>
			<point x="803" y="700"/>
			<point x="795" y="700" type="curve" smooth="yes"/>
			<point x="668" y="700" type="line"/>
		</contour>
	</outline>
</glyph>
<glyph name="N" format="1">
  <advance width="757"/>
  <unicode hex="004E"/>
  <outline>
    <contour>
      <point x="212" y="700" type="line"/>
      <point x="85" y="700" type="line" smooth="yes"/>
      <point x="77" y="700"/>
      <point x="70" y="693"/>
      <point x="70" y="685" type="curve" smooth="yes"/>
      <point x="70" y="15" type="line" smooth="yes"/>
      <point x="70" y="7"/>
      <point x="77" y="0"/>
      <point x="85" y="0" type="curve" smooth="yes"/>
      <point x="197" y="0" type="line" smooth="yes"/>
      <point x="205" y="0"/>
      <point x="212" y="7"/>
      <point x="212" y="15" type="curve" smooth="yes"/>
    </contour>
    <contour>
      <point x="687" y="685" type="line" smooth="yes"/>
      <point x="687" y="693"/>
      <point x="680" y="700"/>
      <point x="672" y="700" type="curve" smooth="yes"/>
      <point x="560" y="700" type="line" smooth="yes"/>
      <point x="552" y="700"/>
      <point x="545" y="693"/>
      <point x="545" y="685" type="curve" smooth="yes"/>
      <point x="545" y="0" type="line"/>
      <point x="672" y="0" type="line" smooth="yes"/>
      <point x="680" y="0"/>
      <point x="687" y="7"/>
      <point x="687" y="15" type="curve" smooth="yes"/>
    </contour>
    <contour>
      <point x="212" y="700" type="line"/>
      <point x="212" y="540" type="line"/>
      <point x="460" y="11" type="line" smooth="yes"/>
      <point x="463" y="4"/>
      <point x="469" y="0"/>
      <point x="477" y="0" type="curve" smooth="yes"/>
      <point x="545" y="0" type="line"/>
      <point x="545" y="160" type="line"/>
      <point x="297" y="689" type="line" smooth="yes"/>
      <point x="294" y="696"/>
      <point x="288" y="700"/>
      <point x="280" y="700" type="curve" smooth="yes"/>
    </contour>
  </outline>
</glyph>
<glyph name="P" format="2">
	<advance width="658"/>
	<unicode hex="0050"/>
	<outline>
		<contour>
			<point x="409" y="240" type="line" smooth="yes"/>
			<point x="571" y="240"/>
			<point x="608" y="283"/>
			<point x="608" y="470" type="curve" smooth="yes"/>
			<point x="608" y="657"/>
			<point x="571" y="700"/>
			<point x="409" y="700" type="curve" smooth="yes"/>
			<point x="106" y="700" type="line"/>
			<point x="106" y="568" type="line"/>
			<point x="409" y="568" type="line" smooth="yes"/>
			<point x="460" y="568"/>
			<point x="466" y="558"/>
			<point x="466" y="470" type="curve" smooth="yes"/>
			<point x="466" y="382"/>
			<point x="460" y="372"/>
			<point x="409" y="372" type="curve" smooth="yes"/>
			<point x="106" y="372" type="line"/>
			<point x="106" y="240" type="line"/>
		</contour>
		<contour>
			<point x="212" y="15" type="curve" smooth="yes"/>
			<point x="212" y="685" type="line" smooth="yes"/>
			<point x="212" y="693"/>
			<point x="205" y="700"/>
			<point x="197" y="700" type="curve" smooth="yes"/>
			<point x="85" y="700" type="line" smooth="yes"/>
			<point x="77" y="700"/>
			<point x="70" y="693"/>
			<point x="70" y="685" type="curve" smooth="yes"/>
			<point x="70" y="15" type="line" smooth="yes"/>
			<point x="70" y="7"/>
			<point x="77" y="0"/>
			<point x="85" y="0" type="curve" smooth="yes"/>
			<point x="197" y="0" type="line" smooth="yes"/>
			<point x="205" y="0"/>
			<point x="212" y="7"/>
		</contour>
	</outline>
</glyph>
<glyph name="Q" format="2">
	<advance width="726"/>
	<unicode hex="0051"/>
	<outline>
		<contour>
			<point x="358" y="-4" type="curve" smooth="yes"/>
			<point x="619" y="-4"/>
			<point x="666" y="62"/>
			<point x="666" y="354" type="curve" smooth="yes"/>
			<point x="666" y="639"/>
			<point x="609" y="704"/>
			<point x="358" y="704" type="curve" smooth="yes"/>
			<point x="107" y="704"/>
			<point x="50" y="639"/>
			<point x="50" y="354" type="curve" smooth="yes"/>
			<point x="50" y="62"/>
			<point x="107" y="-4"/>
		</contour>
		<contour>
			<point x="358" y="128" type="curve" smooth="yes"/>
			<point x="223" y="128"/>
			<point x="192" y="170"/>
			<point x="192" y="354" type="curve" smooth="yes"/>
			<point x="192" y="532"/>
			<point x="223" y="572"/>
			<point x="358" y="572" type="curve" smooth="yes"/>
			<point x="493" y="572"/>
			<point x="524" y="532"/>
			<point x="524" y="354" type="curve" smooth="yes"/>
			<point x="524" y="170"/>
			<point x="493" y="128"/>
		</contour>
		<contour>
			<point x="469" y="307" type="line" smooth="yes"/>
			<point x="463" y="313"/>
			<point x="454" y="313"/>
			<point x="448" y="307" type="curve" smooth="yes"/>
			<point x="376" y="235" type="line" smooth="yes"/>
			<point x="370" y="229"/>
			<point x="370" y="220"/>
			<point x="376" y="214" type="curve" smooth="yes"/>
			<point x="609" y="1" type="line" smooth="yes"/>
			<point x="615" y="-6"/>
			<point x="624" y="-6"/>
			<point x="630" y="1" type="curve" smooth="yes"/>
			<point x="692" y="73" type="line" smooth="yes"/>
			<point x="698" y="79"/>
			<point x="698" y="88"/>
			<point x="692" y="94" type="curve" smooth="yes"/>
		</contour>
	</outline>
</glyph>
<glyph name="R" format="2">
	<advance width="648"/>
	<unicode hex="0052"/>
	<outline>
		<contour>
			<point x="60" y="15" type="line" smooth="yes"/>
			<point x="60" y="7"/>
			<point x="67" y="0"/>
			<point x="75" y="0" type="curve" smooth="yes"/>
			<point x="187" y="0" type="line" smooth="yes"/>
			<point x="195" y="0"/>
			<point x="202" y="7"/>
			<point x="202" y="15" type="curve" smooth="yes"/>
			<point x="202" y="225" type="line" smooth="yes"/>
			<point x="202" y="234"/>
			<point x="208" y="240"/>
			<point x="217" y="240" type="curve" smooth="yes"/>
			<point x="399" y="240" type="line" smooth="yes"/>
			<point x="450" y="240"/>
			<point x="456" y="230"/>
			<point x="456" y="142" type="curve" smooth="yes"/>
			<point x="456" y="15" type="line" smooth="yes"/>
			<point x="456" y="6"/>
			<point x="462" y="0"/>
			<point x="471" y="0" type="curve" smooth="yes"/>
			<point x="583" y="0" type="line" smooth="yes"/>
			<point x="592" y="0"/>
			<point x="598" y="6"/>
			<point x="598" y="15" type="curve" smooth="yes"/>
			<point x="598" y="142" type="line" smooth="yes"/>
			<point x="598" y="243"/>
			<point x="549" y="299"/>
			<point x="462" y="299" type="curve"/>
			<point x="455" y="316" type="line"/>
			<point x="547" y="316"/>
			<point x="598" y="371"/>
			<point x="598" y="470" type="curve" smooth="yes"/>
			<point x="598" y="647"/>
			<point x="553" y="700"/>
			<point x="399" y="700" type="curve" smooth="yes"/>
			<point x="75" y="700" type="line" smooth="yes"/>
			<point x="67" y="700"/>
			<point x="60" y="693"/>
			<point x="60" y="685" type="curve" smooth="yes"/>
		</contour>
		<contour>
			<point x="202" y="387" type="curve" smooth="yes"/>
			<point x="202" y="553" type="line" smooth="yes"/>
			<point x="202" y="562"/>
			<point x="208" y="568"/>
			<point x="217" y="568" type="curve" smooth="yes"/>
			<point x="399" y="568" type="line" smooth="yes"/>
			<point x="450" y="568"/>
			<point x="456" y="558"/>
			<point x="456" y="470" type="curve" smooth="yes"/>
			<point x="456" y="383"/>
			<point x="450" y="375"/>
			<point x="399" y="372" type="curve"/>
			<point x="217" y="372" type="line" smooth="yes"/>
			<point x="208" y="372"/>
			<point x="202" y="378"/>
		</contour>
	</outline>
</glyph>
<glyph name="S" format="2">
	<advance width="635"/>
	<unicode hex="0053"/>
	<outline>
		<contour>
			<point x="317" y="704" type="curve" smooth="yes"/>
			<point x="98" y="704"/>
			<point x="33" y="655"/>
			<point x="33" y="489" type="curve"/>
			<point x="175" y="489" type="line"/>
			<point x="175" y="553"/>
			<point x="207" y="572"/>
			<point x="317" y="572" type="curve" smooth="yes"/>
			<point x="424" y="572"/>
			<point x="456" y="552"/>
			<point x="456" y="484" type="curve" smooth="yes"/>
			<point x="456" y="473"/>
			<point x="464" y="464"/>
			<point x="476" y="464" type="curve" smooth="yes"/>
			<point x="577" y="464" type="line" smooth="yes"/>
			<point x="589" y="464"/>
			<point x="598" y="474"/>
			<point x="598" y="487" type="curve" smooth="yes"/>
			<point x="598" y="654"/>
			<point x="534" y="704"/>
		</contour>
		<contour>
			<point x="33" y="489" type="line"/>
			<point x="33" y="190"/>
			<point x="463" y="366"/>
			<point x="463" y="219" type="curve"/>
			<point x="605" y="219" type="line"/>
			<point x="600" y="528"/>
			<point x="175" y="352"/>
			<point x="175" y="489" type="curve"/>
		</contour>
		<contour>
			<point x="316" y="-4" type="curve" smooth="yes"/>
			<point x="539" y="-4"/>
			<point x="605" y="47"/>
			<point x="605" y="219" type="curve"/>
			<point x="463" y="219" type="line"/>
			<point x="463" y="149"/>
			<point x="429" y="128"/>
			<point x="316" y="128" type="curve" smooth="yes"/>
			<point x="205" y="128"/>
			<point x="172" y="148"/>
			<point x="172" y="214" type="curve" smooth="yes"/>
			<point x="172" y="225"/>
			<point x="163" y="234"/>
			<point x="151" y="234" type="curve" smooth="yes"/>
			<point x="50" y="234" type="line" smooth="yes"/>
			<point x="38" y="234"/>
			<point x="30" y="224"/>
			<point x="30" y="211" type="curve" smooth="yes"/>
			<point x="30" y="45"/>
			<point x="95" y="-4"/>
		</contour>
	</outline>
</glyph>
<glyph name="T" format="2">
	<advance width="602"/>
	<unicode hex="0054"/>
	<outline>
		<contour>
			<point x="377" y="15" type="curve" smooth="yes"/>
			<point x="377" y="685" type="line" smooth="yes"/>
			<point x="377" y="693"/>
			<point x="370" y="700"/>
			<point x="362" y="700" type="curve" smooth="yes"/>
			<point x="250" y="700" type="line" smooth="yes"/>
			<point x="242" y="700"/>
			<point x="235" y="693"/>
			<point x="235" y="685" type="curve" smooth="yes"/>
			<point x="235" y="15" type="line" smooth="yes"/>
			<point x="235" y="7"/>
			<point x="242" y="0"/>
			<point x="250" y="0" type="curve" smooth="yes"/>
			<point x="362" y="0" type="line" smooth="yes"/>
			<point x="370" y="0"/>
			<point x="377" y="7"/>
		</contour>
		<contour>
			<point x="45" y="568" type="curve" smooth="yes"/>
			<point x="557" y="568" type="line" smooth="yes"/>
			<point x="565" y="568"/>
			<point x="572" y="575"/>
			<point x="572" y="583" type="curve" smooth="yes"/>
			<point x="572" y="685" type="line" smooth="yes"/>
			<point x="572" y="693"/>
			<point x="565" y="700"/>
			<point x="557" y="700" type="curve" smooth="yes"/>
			<point x="45" y="700" type="line" smooth="yes"/>
			<point x="37" y="700"/>
			<point x="30" y="693"/>
			<point x="30" y="685" type="curve" smooth="yes"/>
			<point x="30" y="583" type="line" smooth="yes"/>
			<point x="30" y="575"/>
			<point x="37" y="568"/>
		</contour>
	</outline>
</glyph>
<glyph name="U" format="2">
	<advance width="696"/>
	<unicode hex="0055"/>
	<outline>
		<contour>
			<point x="631" y="700" type="curve" smooth="yes"/>
			<point x="519" y="700" type="line" smooth="yes"/>
			<point x="510" y="700"/>
			<point x="504" y="694"/>
			<point x="504" y="685" type="curve" smooth="yes"/>
			<point x="504" y="267" type="line" smooth="yes"/>
			<point x="504" y="154"/>
			<point x="475" y="128"/>
			<point x="348" y="128" type="curve" smooth="yes"/>
			<point x="221" y="128"/>
			<point x="192" y="154"/>
			<point x="192" y="267" type="curve" smooth="yes"/>
			<point x="192" y="685" type="line" smooth="yes"/>
			<point x="192" y="694"/>
			<point x="186" y="700"/>
			<point x="177" y="700" type="curve" smooth="yes"/>
			<point x="65" y="700" type="line" smooth="yes"/>
			<point x="56" y="700"/>
			<point x="50" y="694"/>
			<point x="50" y="685" type="curve" smooth="yes"/>
			<point x="50" y="267" type="line" smooth="yes"/>
			<point x="50" y="46"/>
			<point x="105" y="-4"/>
			<point x="348" y="-4" type="curve" smooth="yes"/>
			<point x="591" y="-4"/>
			<point x="646" y="46"/>
			<point x="646" y="267" type="curve" smooth="yes"/>
			<point x="646" y="685" type="line" smooth="yes"/>
			<point x="646" y="694"/>
			<point x="640" y="700"/>
		</contour>
	</outline>
</glyph>
<glyph name="W" format="2">
	<advance width="1135"/>
	<unicode hex="0057"/>
	<outline>
		<contour>
			<point x="31" y="685" type="curve"/>
			<point x="221" y="15" type="line"/>
			<point x="223" y="7"/>
			<point x="228" y="0"/>
			<point x="236" y="0" type="curve" smooth="yes"/>
			<point x="405" y="0" type="line" smooth="yes"/>
			<point x="413" y="0"/>
			<point x="418" y="7"/>
			<point x="420" y="15" type="curve"/>
			<point x="559" y="526" type="line" smooth="yes"/>
			<point x="567" y="556"/>
			<point x="569" y="556"/>
			<point x="578" y="526" type="curve" smooth="yes"/>
			<point x="725" y="15" type="line"/>
			<point x="727" y="7"/>
			<point x="732" y="0"/>
			<point x="740" y="0" type="curve" smooth="yes"/>
			<point x="909" y="0" type="line" smooth="yes"/>
			<point x="917" y="0"/>
			<point x="922" y="7"/>
			<point x="924" y="15" type="curve" smooth="yes"/>
			<point x="1104" y="685" type="line" smooth="yes"/>
			<point x="1107" y="697"/>
			<point x="1104" y="700"/>
			<point x="1089" y="700" type="curve" smooth="yes"/>
			<point x="987" y="700" type="line" smooth="yes"/>
			<point x="969" y="700"/>
			<point x="965" y="697"/>
			<point x="962" y="685" type="curve" smooth="yes"/>
			<point x="833" y="163" type="line" smooth="yes"/>
			<point x="826" y="133"/>
			<point x="822" y="133"/>
			<point x="814" y="163" type="curve" smooth="yes"/>
			<point x="677" y="685" type="line" smooth="yes"/>
			<point x="674" y="697"/>
			<point x="670" y="700"/>
			<point x="652" y="700" type="curve" smooth="yes"/>
			<point x="483" y="700" type="line" smooth="yes"/>
			<point x="465" y="700"/>
			<point x="461" y="697"/>
			<point x="458" y="685" type="curve" smooth="yes"/>
			<point x="329" y="163" type="line" smooth="yes"/>
			<point x="322" y="133"/>
			<point x="318" y="133"/>
			<point x="310" y="163" type="curve" smooth="yes"/>
			<point x="173" y="685" type="line" smooth="yes"/>
			<point x="170" y="697"/>
			<point x="166" y="700"/>
			<point x="148" y="700" type="curve" smooth="yes"/>
			<point x="46" y="700" type="line" smooth="yes"/>
			<point x="31" y="700"/>
			<point x="28" y="697"/>
		</contour>
	</outline>
</glyph>
<glyph name="X" format="2">
	<advance width="671"/>
	<unicode hex="0058"/>
	<outline>
		<contour>
			<point x="33" y="18" type="line"/>
			<point x="27" y="8"/>
			<point x="31" y="0"/>
			<point x="43" y="0" type="curve" smooth="yes"/>
			<point x="151" y="0" type="line" smooth="yes"/>
			<point x="159" y="0"/>
			<point x="165" y="4"/>
			<point x="169" y="10" type="curve" smooth="yes"/>
			<point x="336" y="279" type="line"/>
			<point x="502" y="10" type="line" smooth="yes"/>
			<point x="506" y="4"/>
			<point x="512" y="0"/>
			<point x="520" y="0" type="curve" smooth="yes"/>
			<point x="628" y="0" type="line" smooth="yes"/>
			<point x="640" y="0"/>
			<point x="644" y="8"/>
			<point x="638" y="18" type="curve"/>
			<point x="419" y="369" type="line"/>
			<point x="618" y="682" type="line" smooth="yes"/>
			<point x="625" y="693"/>
			<point x="620" y="700"/>
			<point x="608" y="700" type="curve" smooth="yes"/>
			<point x="489" y="700" type="line" smooth="yes"/>
			<point x="481" y="700"/>
			<point x="475" y="697"/>
			<point x="471" y="690" type="curve"/>
			<point x="335" y="462" type="line"/>
			<point x="200" y="690" type="line"/>
			<point x="196" y="697"/>
			<point x="190" y="700"/>
			<point x="182" y="700" type="curve" smooth="yes"/>
			<point x="63" y="700" type="line" smooth="yes"/>
			<point x="51" y="700"/>
			<point x="46" y="693"/>
			<point x="53" y="682" type="curve" smooth="yes"/>
			<point x="252" y="369" type="line"/>
		</contour>
	</outline>
</glyph>
<glyph name="Y" format="1">
  <advance width="701"/>
  <unicode hex="0059"/>
  <outline>
    <contour>
      <point x="422" y="385" type="line" smooth="yes"/>
      <point x="422" y="393"/>
      <point x="415" y="400"/>
      <point x="407" y="400" type="curve" smooth="yes"/>
      <point x="295" y="400" type="line" smooth="yes"/>
      <point x="287" y="400"/>
      <point x="280" y="393"/>
      <point x="280" y="385" type="curve" smooth="yes"/>
      <point x="280" y="15" type="line" smooth="yes"/>
      <point x="280" y="7"/>
      <point x="287" y="0"/>
      <point x="295" y="0" type="curve" smooth="yes"/>
      <point x="407" y="0" type="line" smooth="yes"/>
      <point x="415" y="0"/>
      <point x="422" y="7"/>
      <point x="422" y="15" type="curve" smooth="yes"/>
    </contour>
    <contour>
      <point x="395" y="362" type="line"/>
      <point x="181" y="690" type="line" smooth="yes"/>
      <point x="177" y="697"/>
      <point x="171" y="700"/>
      <point x="163" y="700" type="curve" smooth="yes"/>
      <point x="44" y="700" type="line" smooth="yes"/>
      <point x="32" y="700"/>
      <point x="26" y="693"/>
      <point x="34" y="682" type="curve" smooth="yes"/>
      <point x="318" y="257" type="line"/>
    </contour>
    <contour>
      <point x="668" y="682" type="line" smooth="yes"/>
      <point x="675" y="693"/>
      <point x="670" y="700"/>
      <point x="658" y="700" type="curve" smooth="yes"/>
      <point x="539" y="700" type="line" smooth="yes"/>
      <point x="531" y="700"/>
      <point x="525" y="697"/>
      <point x="521" y="690" type="curve" smooth="yes"/>
      <point x="307" y="362" type="line"/>
      <point x="384" y="257" type="line"/>
    </contour>
  </outline>
</glyph>
<glyph name="Z" format="2">
	<advance width="628"/>
	<unicode hex="005A"/>
	<outline>
		<contour>
			<point x="60" y="685" type="curve" smooth="yes"/>
			<point x="60" y="583" type="line" smooth="yes"/>
			<point x="60" y="574"/>
			<point x="66" y="568"/>
			<point x="75" y="568" type="curve" smooth="yes"/>
			<point x="375" y="568" type="line" smooth="yes"/>
			<point x="390" y="568"/>
			<point x="394" y="564"/>
			<point x="390" y="559" type="curve" smooth="yes"/>
			<point x="78" y="159" type="line" smooth="yes"/>
			<point x="56" y="131"/>
			<point x="50" y="122"/>
			<point x="50" y="96" type="curve" smooth="yes"/>
			<point x="50" y="15" type="line" smooth="yes"/>
			<point x="50" y="6"/>
			<point x="56" y="0"/>
			<point x="65" y="0" type="curve" smooth="yes"/>
			<point x="563" y="0" type="line" smooth="yes"/>
			<point x="572" y="0"/>
			<point x="578" y="6"/>
			<point x="578" y="15" type="curve" smooth="yes"/>
			<point x="578" y="117" type="line" smooth="yes"/>
			<point x="578" y="126"/>
			<point x="572" y="132"/>
			<point x="563" y="132" type="curve" smooth="yes"/>
			<point x="254" y="132" type="line" smooth="yes"/>
			<point x="237" y="132"/>
			<point x="238" y="139"/>
			<point x="242" y="145" type="curve" smooth="yes"/>
			<point x="550" y="541" type="line" smooth="yes"/>
			<point x="572" y="570"/>
			<point x="578" y="571"/>
			<point x="578" y="593" type="curve" smooth="yes"/>
			<point x="578" y="685" type="line" smooth="yes"/>
			<point x="578" y="694"/>
			<point x="572" y="700"/>
			<point x="563" y="700" type="curve" smooth="yes"/>
			<point x="75" y="700" type="line" smooth="yes"/>
			<point x="66" y="700"/>
			<point x="60" y="694"/>
		</contour>
	</outline>
</glyph>
<glyph name="grave" format="2">
	<advance width="0"/>
	<unicode hex="0060"/>
	<outline>
		<contour>
			<point x="-307" y="720" type="curve" smooth="yes"/>
			<point x="-438" y="720" type="line" smooth="yes"/>
			<point x="-450" y="720"/>
			<point x="-453" y="711"/>
			<point x="-447" y="702" type="curve" smooth="yes"/>
			<point x="-372" y="588" type="line" smooth="yes"/>
			<point x="-368" y="581"/>
			<point x="-362" y="579"/>
			<point x="-354" y="579" type="curve" smooth="yes"/>
			<point x="-223" y="579" type="line" smooth="yes"/>
			<point x="-211" y="579"/>
			<point x="-208" y="588"/>
			<point x="-214" y="597" type="curve" smooth="yes"/>
			<point x="-289" y="711" type="line" smooth="yes"/>
			<point x="-293" y="718"/>
			<point x="-299" y="720"/>
		</contour>
	</outline>
</glyph>
<glyph name="a" format="2">
	<advance width="583"/>
	<unicode hex="0061"/>
	<outline>
		<contour>
			<point x="216" y="-4" type="curve" smooth="yes"/>
			<point x="333" y="-4"/>
			<point x="365" y="11"/>
			<point x="385" y="69" type="curve"/>
			<point x="391" y="72" type="line"/>
			<point x="391" y="149" type="line"/>
			<point x="391" y="111"/>
			<point x="380" y="107"/>
			<point x="280" y="107" type="curve" smooth="yes"/>
			<point x="185" y="107"/>
			<point x="174" y="111"/>
			<point x="174" y="149" type="curve" smooth="yes"/>
			<point x="174" y="189"/>
			<point x="185" y="193"/>
			<point x="280" y="193" type="curve" smooth="yes"/>
			<point x="380" y="193"/>
			<point x="391" y="189"/>
			<point x="391" y="149" type="curve"/>
			<point x="391" y="246" type="line"/>
			<point x="370" y="287"/>
			<point x="334" y="297"/>
			<point x="216" y="297" type="curve" smooth="yes"/>
			<point x="103" y="297"/>
			<point x="50" y="251"/>
			<point x="50" y="142" type="curve" smooth="yes"/>
			<point x="50" y="33"/>
			<point x="103" y="-4"/>
		</contour>
		<contour>
			<point x="287" y="504" type="curve" smooth="yes"/>
			<point x="132" y="504"/>
			<point x="62" y="455"/>
			<point x="62" y="349" type="curve" smooth="yes"/>
			<point x="62" y="340"/>
			<point x="69" y="333"/>
			<point x="78" y="333" type="curve" smooth="yes"/>
			<point x="174" y="333" type="line" smooth="yes"/>
			<point x="180" y="333"/>
			<point x="186" y="337"/>
			<point x="186" y="342" type="curve" smooth="yes"/>
			<point x="186" y="377"/>
			<point x="199" y="383"/>
			<point x="287" y="383" type="curve" smooth="yes"/>
			<point x="381" y="383"/>
			<point x="391" y="370"/>
			<point x="391" y="256" type="curve" smooth="yes"/>
			<point x="391" y="72" type="line"/>
			<point x="401" y="78" type="line"/>
			<point x="391" y="15" type="line" smooth="yes"/>
			<point x="390" y="7"/>
			<point x="398" y="0"/>
			<point x="406" y="0" type="curve" smooth="yes"/>
			<point x="508" y="0" type="line" smooth="yes"/>
			<point x="516" y="0"/>
			<point x="523" y="7"/>
			<point x="523" y="15" type="curve" smooth="yes"/>
			<point x="523" y="250" type="line" smooth="yes"/>
			<point x="523" y="457"/>
			<point x="479" y="504"/>
		</contour>
	</outline>
</glyph>
<glyph name="b" format="2">
	<advance width="597"/>
	<unicode hex="0062"/>
	<outline>
		<contour>
			<point x="73" y="750" type="line" smooth="yes"/>
			<point x="65" y="750"/>
			<point x="58" y="743"/>
			<point x="58" y="735" type="curve" smooth="yes"/>
			<point x="58" y="15" type="line" smooth="yes"/>
			<point x="58" y="7"/>
			<point x="65" y="0"/>
			<point x="73" y="0" type="curve" smooth="yes"/>
			<point x="177" y="0" type="line" smooth="yes"/>
			<point x="185" y="0"/>
			<point x="193" y="7"/>
			<point x="192" y="15" type="curve" smooth="yes"/>
			<point x="182" y="78" type="line"/>
			<point x="192" y="72" type="line"/>
			<point x="192" y="428" type="line"/>
			<point x="182" y="422" type="line"/>
			<point x="192" y="480" type="line"/>
			<point x="192" y="735" type="line" smooth="yes"/>
			<point x="192" y="743"/>
			<point x="185" y="750"/>
			<point x="177" y="750" type="curve" smooth="yes"/>
		</contour>
		<contour>
			<point x="197" y="69" type="line"/>
			<point x="208" y="18"/>
			<point x="279" y="-4"/>
			<point x="349" y="-4" type="curve" smooth="yes"/>
			<point x="517" y="-4"/>
			<point x="567" y="54"/>
			<point x="567" y="250" type="curve" smooth="yes"/>
			<point x="567" y="446"/>
			<point x="517" y="504"/>
			<point x="349" y="504" type="curve" smooth="yes"/>
			<point x="258" y="504"/>
			<point x="208" y="482"/>
			<point x="197" y="431" type="curve"/>
			<point x="192" y="428" type="line"/>
			<point x="192" y="334" type="line"/>
			<point x="192" y="381"/>
			<point x="242" y="383"/>
			<point x="329" y="383" type="curve" smooth="yes"/>
			<point x="415" y="383"/>
			<point x="435" y="358"/>
			<point x="435" y="250" type="curve" smooth="yes"/>
			<point x="435" y="142"/>
			<point x="415" y="117"/>
			<point x="329" y="117" type="curve" smooth="yes"/>
			<point x="242" y="117"/>
			<point x="192" y="119"/>
			<point x="192" y="166" type="curve"/>
			<point x="192" y="72" type="line"/>
		</contour>
	</outline>
</glyph>
<glyph name="d" format="1">
  <advance width="619"/>
  <unicode hex="0064"/>
  <outline>
    <contour>
      <point x="440" y="750" type="line" smooth="yes"/>
      <point x="432" y="750"/>
      <point x="425" y="743"/>
      <point x="425" y="735" type="curve" smooth="yes"/>
      <point x="425" y="480" type="line"/>
      <point x="435" y="422" type="line"/>
      <point x="425" y="428" type="line"/>
      <point x="425" y="72" type="line"/>
      <point x="435" y="78" type="line"/>
      <point x="425" y="15" type="line" smooth="yes"/>
      <point x="424" y="7"/>
      <point x="432" y="0"/>
      <point x="440" y="0" type="curve" smooth="yes"/>
      <point x="544" y="0" type="line" smooth="yes"/>
      <point x="552" y="0"/>
      <point x="559" y="7"/>
      <point x="559" y="15" type="curve" smooth="yes"/>
      <point x="559" y="735" type="line" smooth="yes"/>
      <point x="559" y="743"/>
      <point x="552" y="750"/>
      <point x="544" y="750" type="curve" smooth="yes"/>
    </contour>
    <contour>
      <point x="425" y="72" type="line"/>
      <point x="425" y="166" type="line"/>
      <point x="425" y="119"/>
      <point x="375" y="117"/>
      <point x="288" y="117" type="curve" smooth="yes"/>
      <point x="202" y="117"/>
      <point x="182" y="142"/>
      <point x="182" y="250" type="curve" smooth="yes"/>
      <point x="182" y="358"/>
      <point x="202" y="383"/>
      <point x="288" y="383" type="curve" smooth="yes"/>
      <point x="375" y="383"/>
      <point x="425" y="381"/>
      <point x="425" y="334" type="curve"/>
      <point x="425" y="428" type="line"/>
      <point x="420" y="431" type="line"/>
      <point x="409" y="482"/>
      <point x="359" y="504"/>
      <point x="268" y="504" type="curve" smooth="yes"/>
      <point x="100" y="504"/>
      <point x="50" y="446"/>
      <point x="50" y="250" type="curve" smooth="yes"/>
      <point x="50" y="54"/>
      <point x="100" y="-4"/>
      <point x="268" y="-4" type="curve" smooth="yes"/>
      <point x="338" y="-4"/>
      <point x="409" y="18"/>
      <point x="420" y="69" type="curve"/>
    </contour>
  </outline>
</glyph>
<glyph name="e" format="1">
  <advance width="583"/>
  <unicode hex="0065"/>
  <outline>
    <contour>
      <point x="104" y="504"/>
      <point x="50" y="446"/>
      <point x="50" y="250" type="curve"/>
      <point x="182" y="250" type="line"/>
      <point x="182" y="372"/>
      <point x="192" y="386"/>
      <point x="286" y="386" type="curve" smooth="yes"/>
      <point x="398" y="386"/>
      <point x="409" y="379"/>
      <point x="409" y="316" type="curve" smooth="yes"/>
      <point x="409" y="309"/>
      <point x="403" y="304"/>
      <point x="394" y="304" type="curve" smooth="yes"/>
      <point x="157" y="304" type="line"/>
      <point x="157" y="203" type="line"/>
      <point x="492" y="203" type="line" smooth="yes"/>
      <point x="529" y="203"/>
      <point x="533" y="213"/>
      <point x="533" y="304" type="curve" smooth="yes"/>
      <point x="533" y="458"/>
      <point x="479" y="504"/>
      <point x="285" y="504" type="curve" smooth="yes"/>
    </contour>
    <contour>
      <point x="481" y="-4"/>
      <point x="523" y="23"/>
      <point x="523" y="144" type="curve" smooth="yes"/>
      <point x="523" y="153"/>
      <point x="516" y="160"/>
      <point x="507" y="160" type="curve" smooth="yes"/>
      <point x="415" y="160" type="line" smooth="yes"/>
      <point x="403" y="160"/>
      <point x="399" y="156"/>
      <point x="399" y="147" type="curve" smooth="yes"/>
      <point x="399" y="117"/>
      <point x="389" y="114"/>
      <point x="296" y="114" type="curve" smooth="yes"/>
      <point x="193" y="114"/>
      <point x="182" y="128"/>
      <point x="182" y="250" type="curve"/>
      <point x="50" y="250" type="line"/>
      <point x="50" y="54"/>
      <point x="106" y="-4"/>
      <point x="296" y="-4" type="curve" smooth="yes"/>
    </contour>
  </outline>
</glyph>
<glyph name="i" format="1">
  <advance width="252"/>
  <unicode hex="0069"/>
  <outline>
    <contour>
      <point x="192" y="485" type="line" smooth="yes"/>
      <point x="192" y="493"/>
      <point x="185" y="500"/>
      <point x="177" y="500" type="curve" smooth="yes"/>
      <point x="75" y="500" type="line" smooth="yes"/>
      <point x="67" y="500"/>
      <point x="60" y="493"/>
      <point x="60" y="485" type="curve" smooth="yes"/>
      <point x="60" y="15" type="line" smooth="yes"/>
      <point x="60" y="7"/>
      <point x="67" y="0"/>
      <point x="75" y="0" type="curve" smooth="yes"/>
      <point x="177" y="0" type="line" smooth="yes"/>
      <point x="185" y="0"/>
      <point x="192" y="7"/>
      <point x="192" y="15" type="curve" smooth="yes"/>
    </contour>
    <contour>
      <point x="60" y="596" type="line" smooth="yes"/>
      <point x="60" y="588"/>
      <point x="67" y="581"/>
      <point x="75" y="581" type="curve" smooth="yes"/>
      <point x="177" y="581" type="line" smooth="yes"/>
      <point x="185" y="581"/>
      <point x="192" y="588"/>
      <point x="192" y="596" type="curve" smooth="yes"/>
      <point x="192" y="685" type="line" smooth="yes"/>
      <point x="192" y="693"/>
      <point x="185" y="700"/>
      <point x="177" y="700" type="curve" smooth="yes"/>
      <point x="75" y="700" type="line" smooth="yes"/>
      <point x="67" y="700"/>
      <point x="60" y="693"/>
      <point x="60" y="685" type="curve" smooth="yes"/>
    </contour>
  </outline>
</glyph>
<glyph name="j" format="1">
  <advance width="252"/>
  <unicode hex="006A"/>
  <outline>
    <contour>
      <point x="192" y="493"/>
      <point x="185" y="500"/>
      <point x="177" y="500" type="curve" smooth="yes"/>
      <point x="75" y="500" type="line" smooth="yes"/>
      <point x="67" y="500"/>
      <point x="60" y="493"/>
      <point x="60" y="485" type="curve" smooth="yes"/>
      <point x="60" y="-22" type="line" smooth="yes"/>
      <point x="60" y="-73"/>
      <point x="55" y="-79"/>
      <point x="15" y="-79" type="curve" smooth="yes"/>
      <point x="6" y="-79"/>
      <point x="0" y="-86"/>
      <point x="0" y="-94" type="curve" smooth="yes"/>
      <point x="0" y="-185" type="line" smooth="yes"/>
      <point x="0" y="-194"/>
      <point x="7" y="-200"/>
      <point x="16" y="-200" type="curve" smooth="yes"/>
      <point x="174" y="-200"/>
      <point x="192" y="-181"/>
      <point x="192" y="-12" type="curve" smooth="yes"/>
      <point x="192" y="485" type="line" smooth="yes"/>
    </contour>
    <contour>
      <point x="60" y="596" type="line" smooth="yes"/>
      <point x="60" y="588"/>
      <point x="67" y="581"/>
      <point x="75" y="581" type="curve" smooth="yes"/>
      <point x="177" y="581" type="line" smooth="yes"/>
      <point x="185" y="581"/>
      <point x="192" y="588"/>
      <point x="192" y="596" type="curve" smooth="yes"/>
      <point x="192" y="685" type="line" smooth="yes"/>
      <point x="192" y="693"/>
      <point x="185" y="700"/>
      <point x="177" y="700" type="curve" smooth="yes"/>
      <point x="75" y="700" type="line" smooth="yes"/>
      <point x="67" y="700"/>
      <point x="60" y="693"/>
      <point x="60" y="685" type="curve" smooth="yes"/>
    </contour>
  </outline>
</glyph>
<glyph name="k" format="2">
	<advance width="565"/>
	<unicode hex="006B"/>
	<outline>
		<contour>
			<point x="283" y="284" type="line"/>
			<point x="223" y="227" type="line"/>
			<point x="376" y="18" type="line" smooth="yes"/>
			<point x="383" y="8"/>
			<point x="394" y="1"/>
			<point x="405" y="1" type="curve" smooth="yes"/>
			<point x="505" y="0" type="line" smooth="yes"/>
			<point x="522" y="0"/>
			<point x="531" y="18"/>
			<point x="521" y="32" type="curve" smooth="yes"/>
			<point x="354" y="249" type="line" smooth="yes"/>
			<point x="340" y="267"/>
			<point x="334" y="268"/>
			<point x="293" y="268" type="curve"/>
		</contour>
		<contour>
			<point x="139" y="283" type="line"/>
			<point x="139" y="133" type="line"/>
			<point x="491" y="463" type="line" smooth="yes"/>
			<point x="506" y="477"/>
			<point x="497" y="500"/>
			<point x="476" y="500" type="curve" smooth="yes"/>
			<point x="368" y="500" type="line" smooth="yes"/>
			<point x="360" y="500"/>
			<point x="349" y="495"/>
			<point x="341" y="487" type="curve" smooth="yes"/>
		</contour>
		<contour>
			<point x="60" y="735" type="curve" smooth="yes"/>
			<point x="60" y="15" type="line" smooth="yes"/>
			<point x="60" y="7"/>
			<point x="67" y="0"/>
			<point x="75" y="0" type="curve" smooth="yes"/>
			<point x="177" y="0" type="line" smooth="yes"/>
			<point x="185" y="0"/>
			<point x="192" y="7"/>
			<point x="192" y="15" type="curve" smooth="yes"/>
			<point x="192" y="735" type="line" smooth="yes"/>
			<point x="192" y="743"/>
			<point x="185" y="750"/>
			<point x="177" y="750" type="curve" smooth="yes"/>
			<point x="75" y="750" type="line" smooth="yes"/>
			<point x="67" y="750"/>
			<point x="60" y="743"/>
		</contour>
	</outline>
</glyph>
<glyph name="l" format="2">
	<advance width="302"/>
	<unicode hex="006C"/>
	<outline>
		<contour>
			<point x="60" y="735" type="curve" smooth="yes"/>
			<point x="60" y="250" type="line" smooth="yes"/>
			<point x="60" y="25"/>
			<point x="80" y="0"/>
			<point x="256" y="0" type="curve" smooth="yes"/>
			<point x="265" y="0"/>
			<point x="272" y="6"/>
			<point x="272" y="15" type="curve" smooth="yes"/>
			<point x="272" y="116" type="line" smooth="yes"/>
			<point x="272" y="124"/>
			<point x="266" y="131"/>
			<point x="257" y="131" type="curve" smooth="yes"/>
			<point x="199" y="131"/>
			<point x="192" y="144"/>
			<point x="192" y="260" type="curve" smooth="yes"/>
			<point x="192" y="735" type="line" smooth="yes"/>
			<point x="192" y="743"/>
			<point x="185" y="750"/>
			<point x="177" y="750" type="curve" smooth="yes"/>
			<point x="75" y="750" type="line" smooth="yes"/>
			<point x="67" y="750"/>
			<point x="60" y="743"/>
		</contour>
	</outline>
</glyph>
<glyph name="m" format="2">
	<advance width="824"/>
	<unicode hex="006D"/>
	<outline>
		<contour>
			<point x="60" y="480" type="curve" smooth="yes"/>
			<point x="60" y="20" type="line" smooth="yes"/>
			<point x="60" y="8"/>
			<point x="68" y="0"/>
			<point x="80" y="0" type="curve" smooth="yes"/>
			<point x="172" y="0" type="line" smooth="yes"/>
			<point x="184" y="0"/>
			<point x="192" y="8"/>
			<point x="192" y="20" type="curve" smooth="yes"/>
			<point x="192" y="398" type="line"/>
			<point x="182" y="392" type="line"/>
			<point x="192" y="480" type="line" smooth="yes"/>
			<point x="193" y="493"/>
			<point x="184" y="500"/>
			<point x="172" y="500" type="curve" smooth="yes"/>
			<point x="80" y="500" type="line" smooth="yes"/>
			<point x="68" y="500"/>
			<point x="60" y="492"/>
		</contour>
		<contour>
			<point x="483" y="20" type="curve" smooth="yes"/>
			<point x="483" y="348" type="line" smooth="yes"/>
			<point x="483" y="448"/>
			<point x="440" y="504"/>
			<point x="357" y="504" type="curve" smooth="yes"/>
			<point x="279" y="504"/>
			<point x="210" y="478"/>
			<point x="198" y="401" type="curve"/>
			<point x="192" y="398" type="line"/>
			<point x="192" y="334" type="line"/>
			<point x="192" y="381"/>
			<point x="210" y="383"/>
			<point x="297" y="383" type="curve" smooth="yes"/>
			<point x="326" y="383"/>
			<point x="351" y="380"/>
			<point x="351" y="324" type="curve" smooth="yes"/>
			<point x="351" y="20" type="line" smooth="yes"/>
			<point x="351" y="8"/>
			<point x="359" y="0"/>
			<point x="371" y="0" type="curve" smooth="yes"/>
			<point x="463" y="0" type="line" smooth="yes"/>
			<point x="475" y="0"/>
			<point x="483" y="8"/>
		</contour>
		<contour>
			<point x="774" y="20" type="curve" smooth="yes"/>
			<point x="774" y="348" type="line" smooth="yes"/>
			<point x="774" y="448"/>
			<point x="731" y="504"/>
			<point x="648" y="504" type="curve" smooth="yes"/>
			<point x="570" y="504"/>
			<point x="501" y="478"/>
			<point x="489" y="401" type="curve"/>
			<point x="477" y="395" type="line"/>
			<point x="483" y="324" type="line"/>
			<point x="483" y="380"/>
			<point x="508" y="383"/>
			<point x="537" y="383" type="curve" smooth="yes"/>
			<point x="616" y="383"/>
			<point x="642" y="380"/>
			<point x="642" y="324" type="curve" smooth="yes"/>
			<point x="642" y="20" type="line" smooth="yes"/>
			<point x="642" y="8"/>
			<point x="650" y="0"/>
			<point x="662" y="0" type="curve" smooth="yes"/>
			<point x="754" y="0" type="line" smooth="yes"/>
			<point x="766" y="0"/>
			<point x="774" y="8"/>
		</contour>
	</outline>
</glyph>
<glyph name="n" format="1">
  <advance width="583"/>
  <unicode hex="006E"/>
  <outline>
    <contour>
      <point x="60" y="20" type="line" smooth="yes"/>
      <point x="60" y="8"/>
      <point x="68" y="0"/>
      <point x="80" y="0" type="curve" smooth="yes"/>
      <point x="172" y="0" type="line" smooth="yes"/>
      <point x="184" y="0"/>
      <point x="192" y="8"/>
      <point x="192" y="20" type="curve" smooth="yes"/>
      <point x="192" y="398" type="line"/>
      <point x="182" y="392" type="line"/>
      <point x="192" y="480" type="line" smooth="yes"/>
      <point x="193" y="493"/>
      <point x="184" y="500"/>
      <point x="172" y="500" type="curve" smooth="yes"/>
      <point x="80" y="500" type="line" smooth="yes"/>
      <point x="68" y="500"/>
      <point x="60" y="492"/>
      <point x="60" y="480" type="curve" smooth="yes"/>
    </contour>
    <contour>
      <point x="533" y="348" type="line" smooth="yes"/>
      <point x="533" y="457"/>
      <point x="480" y="504"/>
      <point x="367" y="504" type="curve" smooth="yes"/>
      <point x="289" y="504"/>
      <point x="210" y="478"/>
      <point x="198" y="401" type="curve"/>
      <point x="192" y="398" type="line"/>
      <point x="192" y="334" type="line"/>
      <point x="192" y="378"/>
      <point x="203" y="383"/>
      <point x="297" y="383" type="curve" smooth="yes"/>
      <point x="391" y="383"/>
      <point x="401" y="377"/>
      <point x="401" y="324" type="curve" smooth="yes"/>
      <point x="401" y="20" type="line" smooth="yes"/>
      <point x="401" y="8"/>
      <point x="409" y="0"/>
      <point x="421" y="0" type="curve" smooth="yes"/>
      <point x="513" y="0" type="line" smooth="yes"/>
      <point x="525" y="0"/>
      <point x="533" y="8"/>
      <point x="533" y="20" type="curve" smooth="yes"/>
    </contour>
  </outline>
</glyph>
<glyph name="o" format="1">
  <advance width="576"/>
  <unicode hex="006F"/>
  <outline>
    <contour>
      <point x="495" y="-4"/>
      <point x="526" y="34"/>
      <point x="526" y="250" type="curve" smooth="yes"/>
      <point x="526" y="469"/>
      <point x="493" y="504"/>
      <point x="288" y="504" type="curve" smooth="yes"/>
      <point x="87" y="504"/>
      <point x="50" y="460"/>
      <point x="50" y="250" type="curve" smooth="yes"/>
      <point x="50" y="25"/>
      <point x="89" y="-4"/>
      <point x="288" y="-4" type="curve" smooth="yes"/>
    </contour>
    <contour>
      <point x="193" y="117"/>
      <point x="182" y="130"/>
      <point x="182" y="250" type="curve" smooth="yes"/>
      <point x="182" y="370"/>
      <point x="195" y="383"/>
      <point x="288" y="383" type="curve" smooth="yes"/>
      <point x="387" y="383"/>
      <point x="394" y="369"/>
      <point x="394" y="250" type="curve" smooth="yes"/>
      <point x="394" y="130"/>
      <point x="384" y="117"/>
      <point x="288" y="117" type="curve" smooth="yes"/>
    </contour>
  </outline>
</glyph>
<glyph name="p" format="1">
  <advance width="619"/>
  <unicode hex="0070"/>
  <outline>
    <contour>
      <point x="179" y="-250" type="line" smooth="yes"/>
      <point x="187" y="-250"/>
      <point x="194" y="-243"/>
      <point x="194" y="-235" type="curve" smooth="yes"/>
      <point x="194" y="20" type="line"/>
      <point x="184" y="78" type="line"/>
      <point x="194" y="72" type="line"/>
      <point x="194" y="428" type="line"/>
      <point x="184" y="422" type="line"/>
      <point x="194" y="485" type="line" smooth="yes"/>
      <point x="195" y="493"/>
      <point x="187" y="500"/>
      <point x="179" y="500" type="curve" smooth="yes"/>
      <point x="75" y="500" type="line" smooth="yes"/>
      <point x="67" y="500"/>
      <point x="60" y="493"/>
      <point x="60" y="485" type="curve" smooth="yes"/>
      <point x="60" y="-235" type="line" smooth="yes"/>
      <point x="60" y="-243"/>
      <point x="67" y="-250"/>
      <point x="75" y="-250" type="curve" smooth="yes"/>
    </contour>
    <contour>
      <point x="194" y="428" type="line"/>
      <point x="194" y="334" type="line"/>
      <point x="194" y="381"/>
      <point x="244" y="383"/>
      <point x="331" y="383" type="curve" smooth="yes"/>
      <point x="417" y="383"/>
      <point x="437" y="358"/>
      <point x="437" y="250" type="curve" smooth="yes"/>
      <point x="437" y="142"/>
      <point x="417" y="117"/>
      <point x="331" y="117" type="curve" smooth="yes"/>
      <point x="244" y="117"/>
      <point x="194" y="119"/>
      <point x="194" y="166" type="curve"/>
      <point x="194" y="72" type="line"/>
      <point x="199" y="69" type="line"/>
      <point x="210" y="18"/>
      <point x="260" y="-4"/>
      <point x="351" y="-4" type="curve" smooth="yes"/>
      <point x="519" y="-4"/>
      <point x="569" y="54"/>
      <point x="569" y="250" type="curve" smooth="yes"/>
      <point x="569" y="446"/>
      <point x="519" y="504"/>
      <point x="351" y="504" type="curve" smooth="yes"/>
      <point x="281" y="504"/>
      <point x="210" y="482"/>
      <point x="199" y="431" type="curve"/>
    </contour>
  </outline>
</glyph>
<glyph name="s" format="2">
	<advance width="575"/>
	<unicode hex="0073"/>
	<outline>
		<contour>
			<point x="288" y="504" type="curve" smooth="yes"/>
			<point x="117" y="504"/>
			<point x="54" y="460"/>
			<point x="54" y="343" type="curve"/>
			<point x="186" y="343" type="line"/>
			<point x="186" y="389"/>
			<point x="195" y="394"/>
			<point x="288" y="394" type="curve" smooth="yes"/>
			<point x="379" y="394"/>
			<point x="387" y="389"/>
			<point x="387" y="347" type="curve" smooth="yes"/>
			<point x="387" y="339"/>
			<point x="394" y="333"/>
			<point x="402" y="333" type="curve" smooth="yes"/>
			<point x="506" y="333" type="line" smooth="yes"/>
			<point x="515" y="333"/>
			<point x="521" y="340"/>
			<point x="521" y="349" type="curve" smooth="yes"/>
			<point x="521" y="462"/>
			<point x="459" y="504"/>
		</contour>
		<contour>
			<point x="54" y="343" type="line"/>
			<point x="54" y="122"/>
			<point x="393" y="248"/>
			<point x="393" y="157" type="curve"/>
			<point x="525" y="157" type="line"/>
			<point x="521" y="378"/>
			<point x="186" y="252"/>
			<point x="186" y="343" type="curve"/>
		</contour>
		<contour>
			<point x="287" y="-4" type="curve" smooth="yes"/>
			<point x="460" y="-4"/>
			<point x="525" y="40"/>
			<point x="525" y="157" type="curve"/>
			<point x="393" y="157" type="line"/>
			<point x="393" y="111"/>
			<point x="382" y="106"/>
			<point x="287" y="106" type="curve" smooth="yes"/>
			<point x="194" y="106"/>
			<point x="184" y="111"/>
			<point x="184" y="153" type="curve" smooth="yes"/>
			<point x="184" y="161"/>
			<point x="177" y="167"/>
			<point x="169" y="167" type="curve" smooth="yes"/>
			<point x="65" y="167" type="line" smooth="yes"/>
			<point x="56" y="167"/>
			<point x="50" y="160"/>
			<point x="50" y="151" type="curve" smooth="yes"/>
			<point x="50" y="38"/>
			<point x="114" y="-4"/>
		</contour>
	</outline>
</glyph>
<glyph name="t" format="1">
  <advance width="372"/>
  <unicode hex="0074"/>
  <outline>
    <contour>
      <point x="93" y="135" type="line" smooth="yes"/>
      <point x="93" y="10"/>
      <point x="112" y="-4"/>
      <point x="287" y="-4" type="curve" smooth="yes"/>
      <point x="296" y="-4"/>
      <point x="303" y="2"/>
      <point x="303" y="11" type="curve" smooth="yes"/>
      <point x="303" y="102" type="line" smooth="yes"/>
      <point x="303" y="110"/>
      <point x="297" y="117"/>
      <point x="288" y="117" type="curve" smooth="yes"/>
      <point x="231" y="117"/>
      <point x="225" y="121"/>
      <point x="225" y="156" type="curve" smooth="yes"/>
      <point x="225" y="629" type="line" smooth="yes"/>
      <point x="225" y="637"/>
      <point x="218" y="644"/>
      <point x="210" y="644" type="curve" smooth="yes"/>
      <point x="108" y="644" type="line" smooth="yes"/>
      <point x="100" y="644"/>
      <point x="93" y="637"/>
      <point x="93" y="629" type="curve" smooth="yes"/>
    </contour>
    <contour>
      <point x="37" y="504"/>
      <point x="30" y="497"/>
      <point x="30" y="489" type="curve" smooth="yes"/>
      <point x="30" y="398" type="line" smooth="yes"/>
      <point x="30" y="390"/>
      <point x="37" y="383"/>
      <point x="45" y="383" type="curve" smooth="yes"/>
      <point x="307" y="383" type="line" smooth="yes"/>
      <point x="315" y="383"/>
      <point x="322" y="390"/>
      <point x="322" y="398" type="curve" smooth="yes"/>
      <point x="322" y="489" type="line" smooth="yes"/>
      <point x="322" y="497"/>
      <point x="315" y="504"/>
      <point x="307" y="504" type="curve" smooth="yes"/>
      <point x="45" y="504" type="line" smooth="yes"/>
    </contour>
  </outline>
</glyph>
<glyph name="u" format="1">
  <advance width="583"/>
  <unicode hex="0075"/>
  <outline>
    <contour>
      <point x="523" y="480" type="line" smooth="yes"/>
      <point x="523" y="492"/>
      <point x="515" y="500"/>
      <point x="503" y="500" type="curve" smooth="yes"/>
      <point x="411" y="500" type="line" smooth="yes"/>
      <point x="399" y="500"/>
      <point x="391" y="492"/>
      <point x="391" y="480" type="curve" smooth="yes"/>
      <point x="391" y="102" type="line"/>
      <point x="401" y="108" type="line"/>
      <point x="391" y="20" type="line" smooth="yes"/>
      <point x="390" y="7"/>
      <point x="399" y="0"/>
      <point x="411" y="0" type="curve" smooth="yes"/>
      <point x="503" y="0" type="line" smooth="yes"/>
      <point x="515" y="0"/>
      <point x="523" y="8"/>
      <point x="523" y="20" type="curve" smooth="yes"/>
    </contour>
    <contour>
      <point x="50" y="152" type="line" smooth="yes"/>
      <point x="50" y="43"/>
      <point x="103" y="-4"/>
      <point x="216" y="-4" type="curve" smooth="yes"/>
      <point x="294" y="-4"/>
      <point x="373" y="22"/>
      <point x="385" y="99" type="curve"/>
      <point x="391" y="102" type="line"/>
      <point x="391" y="166" type="line"/>
      <point x="391" y="122"/>
      <point x="380" y="117"/>
      <point x="286" y="117" type="curve" smooth="yes"/>
      <point x="192" y="117"/>
      <point x="182" y="123"/>
      <point x="182" y="176" type="curve" smooth="yes"/>
      <point x="182" y="480" type="line" smooth="yes"/>
      <point x="182" y="492"/>
      <point x="174" y="500"/>
      <point x="162" y="500" type="curve" smooth="yes"/>
      <point x="70" y="500" type="line" smooth="yes"/>
      <point x="58" y="500"/>
      <point x="50" y="492"/>
      <point x="50" y="480" type="curve" smooth="yes"/>
    </contour>
  </outline>
</glyph>
<glyph name="v" format="2">
	<advance width="571"/>
	<unicode hex="0076"/>
	<outline>
		<contour>
			<point x="31" y="477" type="curve" smooth="yes"/>
			<point x="182" y="29" type="line" smooth="yes"/>
			<point x="188" y="12"/>
			<point x="206" y="0"/>
			<point x="225" y="0" type="curve" smooth="yes"/>
			<point x="343" y="0" type="line" smooth="yes"/>
			<point x="362" y="0"/>
			<point x="380" y="12"/>
			<point x="386" y="29" type="curve" smooth="yes"/>
			<point x="540" y="477" type="line" smooth="yes"/>
			<point x="545" y="491"/>
			<point x="538" y="500"/>
			<point x="524" y="500" type="curve" smooth="yes"/>
			<point x="440" y="500" type="line" smooth="yes"/>
			<point x="415" y="500"/>
			<point x="411" y="498"/>
			<point x="407" y="482" type="curve" smooth="yes"/>
			<point x="293" y="141" type="line" smooth="yes"/>
			<point x="290" y="132"/>
			<point x="279" y="132"/>
			<point x="276" y="141" type="curve" smooth="yes"/>
			<point x="164" y="481" type="line" smooth="yes"/>
			<point x="157" y="498"/>
			<point x="154" y="500"/>
			<point x="131" y="500" type="curve" smooth="yes"/>
			<point x="47" y="500" type="line" smooth="yes"/>
			<point x="33" y="500"/>
			<point x="26" y="491"/>
		</contour>
	</outline>
</glyph>
<glyph name="x" format="2">
	<advance width="558"/>
	<unicode hex="0078"/>
	<outline>
		<contour>
			<point x="33" y="18" type="curve" smooth="yes"/>
			<point x="204" y="251" type="line"/>
			<point x="35" y="482" type="line" smooth="yes"/>
			<point x="30" y="493"/>
			<point x="34" y="500"/>
			<point x="45" y="500" type="curve" smooth="yes"/>
			<point x="152" y="500" type="line" smooth="yes"/>
			<point x="172" y="500"/>
			<point x="175" y="498"/>
			<point x="185" y="482" type="curve" smooth="yes"/>
			<point x="279" y="344" type="line"/>
			<point x="373" y="482" type="line" smooth="yes"/>
			<point x="383" y="498"/>
			<point x="386" y="500"/>
			<point x="406" y="500" type="curve" smooth="yes"/>
			<point x="513" y="500" type="line" smooth="yes"/>
			<point x="524" y="500"/>
			<point x="528" y="493"/>
			<point x="523" y="482" type="curve" smooth="yes"/>
			<point x="354.499" y="250.684" type="line"/>
			<point x="525" y="18" type="line" smooth="yes"/>
			<point x="533" y="7"/>
			<point x="530" y="0"/>
			<point x="518" y="0" type="curve" smooth="yes"/>
			<point x="404" y="0" type="line" smooth="yes"/>
			<point x="386" y="0"/>
			<point x="383" y="2"/>
			<point x="373" y="18" type="curve" smooth="yes"/>
			<point x="279" y="157" type="line"/>
			<point x="185" y="18" type="line" smooth="yes"/>
			<point x="173" y="2"/>
			<point x="170" y="0"/>
			<point x="155" y="0" type="curve" smooth="yes"/>
			<point x="40" y="0" type="line" smooth="yes"/>
			<point x="28" y="0"/>
			<point x="25" y="7"/>
		</contour>
	</outline>
</glyph>
<glyph name="y" format="2">
	<advance width="571"/>
	<unicode hex="0079"/>
	<outline>
		<contour>
			<point x="31" y="477" type="curve" smooth="yes"/>
			<point x="182" y="29" type="line" smooth="yes"/>
			<point x="191" y="3"/>
			<point x="196" y="0"/>
			<point x="225" y="0" type="curve" smooth="yes"/>
			<point x="293" y="0" type="line"/>
			<point x="293" y="141" type="line"/>
			<point x="290" y="132"/>
			<point x="279" y="132"/>
			<point x="276" y="141" type="curve" smooth="yes"/>
			<point x="164" y="481" type="line" smooth="yes"/>
			<point x="158" y="498"/>
			<point x="155" y="500"/>
			<point x="131" y="500" type="curve" smooth="yes"/>
			<point x="47" y="500" type="line" smooth="yes"/>
			<point x="33" y="500"/>
			<point x="26" y="491"/>
		</contour>
		<contour>
			<point x="540" y="477" type="line" smooth="yes"/>
			<point x="545" y="491"/>
			<point x="538" y="500"/>
			<point x="524" y="500" type="curve" smooth="yes"/>
			<point x="440" y="500" type="line" smooth="yes"/>
			<point x="415" y="500"/>
			<point x="412" y="498"/>
			<point x="407" y="482" type="curve" smooth="yes"/>
			<point x="222" y="-71" type="line" smooth="yes"/>
			<point x="205" y="-123"/>
			<point x="197" y="-129"/>
			<point x="148" y="-129" type="curve" smooth="yes"/>
			<point x="139" y="-129"/>
			<point x="133" y="-136"/>
			<point x="133" y="-144" type="curve" smooth="yes"/>
			<point x="133" y="-235" type="line" smooth="yes"/>
			<point x="133" y="-244"/>
			<point x="140" y="-250"/>
			<point x="149" y="-250" type="curve" smooth="yes"/>
			<point x="276" y="-250"/>
			<point x="297" y="-231"/>
			<point x="355" y="-62" type="curve" smooth="yes"/>
		</contour>
	</outline>
</glyph>
<glyph name="acute" format="2">
	<advance width="0"/>
	<unicode hex="00B4"/>
	<outline>
		<contour>
			<point x="-274" y="720" type="line" smooth="yes"/>
			<point x="-282" y="720"/>
			<point x="-288" y="718"/>
			<point x="-292" y="711" type="curve" smooth="yes"/>
			<point x="-367" y="597" type="line" smooth="yes"/>
			<point x="-373" y="588"/>
			<point x="-370" y="579"/>
			<point x="-358" y="579" type="curve" smooth="yes"/>
			<point x="-227" y="579" type="line" smooth="yes"/>
			<point x="-219" y="579"/>
			<point x="-213" y="581"/>
			<point x="-209" y="588" type="curve" smooth="yes"/>
			<point x="-134" y="702" type="line" smooth="yes"/>
			<point x="-128" y="711"/>
			<point x="-131" y="720"/>
			<point x="-143" y="720" type="curve" smooth="yes"/>
		</contour>
	</outline>
</glyph>
<glyph name="endash" format="2">
	<advance width="622"/>
	<unicode hex="2013"/>
	<outline>
		<contour>
			<point x="70" y="329" type="curve" smooth="yes"/>
			<point x="70" y="240" type="line" smooth="yes"/>
			<point x="70" y="232"/>
			<point x="77" y="225"/>
			<point x="85" y="225" type="curve" smooth="yes"/>
			<point x="537" y="225" type="line" smooth="yes"/>
			<point x="545" y="225"/>
			<point x="552" y="232"/>
			<point x="552" y="240" type="curve" smooth="yes"/>
			<point x="552" y="329" type="line" smooth="yes"/>
			<point x="552" y="337"/>
			<point x="545" y="344"/>
			<point x="537" y="344" type="curve" smooth="yes"/>
			<point x="85" y="344" type="line" smooth="yes"/>
			<point x="77" y="344"/>
			<point x="70" y="337"/>
		</contour>
	</outline>
</glyph>
<glyph name="emdash" format="1">
  <advance width="1022"/>
  <unicode hex="2014"/>
  <outline>
    <contour>
      <point x="70" y="240" type="line" smooth="yes"/>
      <point x="70" y="232"/>
      <point x="77" y="225"/>
      <point x="85" y="225" type="curve" smooth="yes"/>
      <point x="937" y="225" type="line" smooth="yes"/>
      <point x="945" y="225"/>
      <point x="952" y="232"/>
      <point x="952" y="240" type="curve" smooth="yes"/>
      <point x="952" y="329" type="line" smooth="yes"/>
      <point x="952" y="337"/>
      <point x="945" y="344"/>
      <point x="937" y="344" type="curve" smooth="yes"/>
      <point x="85" y="344" type="line" smooth="yes"/>
      <point x="77" y="344"/>
      <point x="70" y="337"/>
      <point x="70" y="329" type="curve" smooth="yes"/>
    </contour>
  </outline>
</glyph>
<glyph name="zero.zero" format="2">
	<advance width="736"/>
	<outline>
		<contour>
			<point x="154" y="139" type="line"/>
			<point x="252" y="72" type="line"/>
			<point x="583" y="566" type="line"/>
			<point x="481" y="641" type="line"/>
		</contour>
		<component base="zero"/>
	</outline>
</glyph>
